# Blender v2.90.1 OBJ File: 'Key.blend'
# www.blender.org
mtllib Key.mtl
o Cube
v -0.249115 0.079581 -0.341774
v -0.091878 0.079581 -0.234619
v -0.091531 0.079581 -0.070552
v -0.163043 0.079581 0.011739
v -0.066750 0.079581 0.087747
v -0.144107 0.079581 0.199733
v -0.065632 0.079581 0.261622
v -0.135231 0.079581 0.347447
v -0.084849 0.079581 0.408830
v -0.126803 0.079581 0.495704
v -0.063346 0.079581 0.545391
v 0.067642 0.079581 0.460650
v 0.069082 0.079581 -0.234423
v 0.254819 0.079581 -0.338546
v 0.129387 -0.098607 -0.496139
v 0.127329 -0.098607 -0.366568
v -0.075614 -0.098607 -0.365629
v -0.072420 -0.098607 -0.496580
v 0.254819 -0.010178 -0.338546
v 0.069082 -0.010178 -0.234423
v 0.067642 -0.010178 0.460650
v -0.063346 -0.010178 0.545391
v -0.126803 -0.010178 0.495704
v -0.084849 -0.010178 0.408830
v -0.135231 -0.010178 0.347447
v -0.065632 -0.010178 0.261622
v -0.144107 -0.010178 0.199733
v -0.066750 -0.010178 0.087747
v -0.163043 -0.010178 0.011739
v -0.091531 -0.010178 -0.070552
v -0.091878 -0.010178 -0.234619
v -0.249115 -0.010178 -0.341774
v 0.129387 -0.010178 -0.496139
v 0.127329 -0.010178 -0.366568
v -0.075614 -0.010178 -0.365629
v -0.072420 -0.010178 -0.496580
v 0.129387 -0.098607 -0.496139
v 0.127329 -0.098607 -0.366568
v -0.075614 -0.098607 -0.365629
v -0.072420 -0.098607 -0.496580
v 0.129387 0.079581 -0.496139
v 0.127329 0.079581 -0.366568
v -0.075614 0.079581 -0.365629
v -0.072420 0.079581 -0.496580
v 0.127329 0.009457 -0.366568
v 0.127329 0.034702 -0.366568
v 0.127329 0.059946 -0.366568
v -0.075614 0.009457 -0.365629
v -0.075614 0.034702 -0.365629
v -0.075614 0.059946 -0.365629
v -0.072420 0.009457 -0.496580
v -0.072420 0.034702 -0.496580
v -0.072420 0.059946 -0.496580
v 0.129387 0.009457 -0.496139
v 0.129387 0.034702 -0.496139
v 0.129387 0.059946 -0.496139
v -0.158447 0.079581 -0.632753
v -0.245225 0.079581 -0.547932
v 0.258811 0.079581 -0.545948
v 0.175279 0.079581 -0.631439
v 0.201115 0.079581 -0.570002
v 0.175279 -0.010178 -0.631439
v 0.258811 -0.010178 -0.545948
v 0.201115 -0.010178 -0.570002
v -0.245225 -0.010178 -0.547932
v -0.158447 -0.010178 -0.632753
vt 0.750183 0.675553
vt 0.752939 0.694798
vt 0.752939 0.694798
vt 0.750183 0.675553
vt 0.713620 0.555344
vt 0.710911 0.560148
vt 0.719424 0.565904
vt 0.740003 0.564522
vt 0.742777 0.583003
vt 0.767565 0.593949
vt 0.763328 0.566483
vt 0.751828 0.555180
vt 0.746104 0.602656
vt 0.756516 0.609225
vt 0.756516 0.609225
vt 0.746104 0.602656
vt 0.727152 0.682581
vt 0.727152 0.682581
vt 0.743262 0.628829
vt 0.743262 0.628829
vt 0.723004 0.595697
vt 0.723004 0.595697
vt 0.756130 0.639189
vt 0.756130 0.639189
vt 0.704573 0.595172
vt 0.704573 0.595172
vt 0.738886 0.650850
vt 0.738886 0.650850
vt 0.710911 0.560148
vt 0.713620 0.555344
vt 0.751828 0.555180
vt 0.763328 0.566483
vt 0.767565 0.593949
vt 0.742777 0.583003
vt 0.740003 0.564522
vt 0.719424 0.565904
vt 0.720399 0.584438
vt 0.745024 0.595673
vt 0.753849 0.660160
vt 0.741288 0.664003
vt 0.704074 0.566967
vt 0.753849 0.660160
vt 0.741288 0.664003
vt 0.745024 0.595673
vt 0.704074 0.566967
vt 0.720399 0.584438
vt 0.000000 0.000000
vt 0.000000 0.000000
vt 0.000000 0.000000
vt 0.000000 0.000000
vt 0.000000 0.000000
vt 0.000000 0.000000
vt 0.000000 0.000000
vt 0.000000 0.000000
vt 0.000000 0.000000
vt 0.000000 0.000000
vt 0.000000 0.000000
vt 0.000000 0.000000
vt 0.000000 0.000000
vt 0.000000 0.000000
vt 0.000000 0.000000
vt 0.000000 0.000000
vt 0.000000 0.000000
vt 0.000000 0.000000
vt 0.000000 0.000000
vt 0.000000 0.000000
vt 0.703872 0.555563
vt 0.704018 0.555385
vn -0.6165 0.0000 0.7874
vn 0.0000 -1.0000 0.0000
vn -0.7548 0.0000 -0.6559
vn 0.5432 0.0000 0.8396
vn -0.6196 0.0000 0.7849
vn 1.0000 0.0000 0.0021
vn -0.8228 0.0000 -0.5684
vn 0.4890 0.0000 0.8723
vn -0.6192 0.0000 0.7852
vn 0.0000 1.0000 -0.0000
vn -0.7767 0.0000 -0.6299
vn 0.0039 -0.0000 -1.0000
vn -0.7730 0.0000 0.6344
vn -0.5632 0.0000 0.8264
vn -0.9005 0.0000 -0.4349
vn 0.9998 0.0000 0.0192
vn -1.0000 0.0000 0.0021
vn -0.0046 0.0000 -1.0000
vn 0.9997 0.0000 0.0244
vn -0.0022 0.0000 1.0000
vn -0.9999 0.0000 -0.0159
vn 0.7153 0.0000 -0.6989
vn -0.6990 0.0000 -0.7151
vn -0.9998 0.0000 -0.0189
usemtl Material
s off
f 23/1/1 22/2/1 11/3/1 10/4/1
f 62/5/2 64/6/2 33/7/2 36/8/2 35/9/2 32/10/2 65/11/2 66/12/2
f 30/13/3 29/14/3 4/15/3 3/16/3
f 22/2/4 21/17/4 12/18/4 11/3/4
f 29/14/5 28/19/5 5/20/5 4/15/5
f 21/17/6 20/21/6 13/22/6 12/18/6
f 28/19/7 27/23/7 6/24/7 5/20/7
f 20/21/8 19/25/8 14/26/8 13/22/8
f 27/23/9 26/27/9 7/28/9 6/24/9
f 61/29/10 60/30/10 57/31/10 58/32/10 1/33/10 43/34/10 44/35/10 41/36/10
f 42/37/10 43/34/10 1/33/10 2/38/10 3/16/10 4/15/10 5/20/10 6/24/10 7/28/10 8/39/10 9/40/10 10/4/10 11/3/10 12/18/10 13/22/10 14/26/10 59/41/10 61/29/10 41/36/10
f 26/27/11 25/42/11 8/39/11 7/28/11
f 62/5/12 66/12/12 57/31/12 60/30/12
f 25/42/13 24/43/13 9/40/13 8/39/13
f 32/10/14 31/44/14 2/38/14 1/33/14
f 24/43/15 23/1/15 10/4/15 9/40/15
f 19/25/16 63/45/16 59/41/16 14/26/16
f 31/44/17 30/13/17 3/16/17 2/38/17
f 34/46/2 33/7/2 64/6/2 63/45/2 19/25/2 20/21/2 21/17/2 22/2/2 23/1/2 24/43/2 25/42/2 26/27/2 27/23/2 28/19/2 29/14/2 30/13/2 31/44/2 32/10/2 35/9/2
f 34/47/18 35/48/18 48/49/18 45/50/18
f 45/50/18 48/49/18 49/51/18 46/52/18
f 46/52/18 49/51/18 50/53/18 47/54/18
f 47/54/18 50/53/18 43/55/18 42/56/18
f 35/48/19 36/57/19 51/58/19 48/49/19
f 48/49/19 51/58/19 52/59/19 49/51/19
f 49/51/19 52/59/19 53/60/19 50/53/19
f 50/53/19 53/60/19 44/61/19 43/55/19
f 36/57/20 33/62/20 54/63/20 51/58/20
f 51/58/20 54/63/20 55/64/20 52/59/20
f 52/59/20 55/64/20 56/65/20 53/60/20
f 53/60/20 56/65/20 41/66/20 44/61/20
f 33/62/21 34/47/21 45/50/21 54/63/21
f 54/63/21 45/50/21 46/52/21 55/64/21
f 55/64/21 46/52/21 47/54/21 56/65/21
f 56/65/21 47/54/21 42/56/21 41/66/21
f 59/41/10 60/67/10 61/29/10
f 62/5/2 63/68/2 64/6/2
f 62/5/22 60/30/22 59/41/22 63/45/22
f 57/31/23 66/12/23 65/11/23 58/32/23
f 65/11/24 32/10/24 1/33/24 58/32/24
l 40 18
l 17 39
l 38 16
l 15 37
