# This file uses centimeters as units for non-parametric coordinates.

mtllib open box 3.mtl
g default
v -1.639596 1.621187 -1.711589
v -1.639596 2.632491 -3.073394
v -1.639596 1.550572 -1.764030
v -1.639596 2.561876 -3.125834
v 1.694268 1.550572 -1.764030
v 1.694268 2.561876 -3.125834
v 1.694268 1.621187 -1.711589
v 1.694268 2.632491 -3.073394
v 1.724556 2.603930 -3.113799
v 1.724556 1.574251 -1.727250
v -1.669884 1.574251 -1.727250
v -1.669884 2.603930 -3.113799
vt 0.375000 0.000000
vt 0.625000 0.000000
vt 0.375000 0.250000
vt 0.625000 0.250000
vt 0.375000 0.500000
vt 0.625000 0.500000
vt 0.375000 0.750000
vt 0.625000 0.750000
vt 0.375000 1.000000
vt 0.625000 1.000000
vt 0.875000 0.000000
vt 0.875000 0.250000
vt 0.125000 0.000000
vt 0.125000 0.250000
vt 0.625000 0.616358
vt 0.875000 0.133642
vt 0.125000 0.133642
vt 0.375000 0.616358
vt 0.375000 0.133642
vt 0.625000 0.133642
vn -0.998858 -0.038353 -0.028482
vn -0.998858 -0.038353 -0.028482
vn -0.803900 -0.477498 -0.354600
vn -0.803900 -0.477498 -0.354600
vn 0.000000 -0.802835 -0.596202
vn 0.000000 -0.802835 -0.596202
vn 0.000000 -0.802835 -0.596202
vn 0.000000 -0.802835 -0.596202
vn 0.803900 -0.477498 -0.354600
vn 0.803900 -0.477498 -0.354600
vn 0.998858 -0.038353 -0.028482
vn 0.998858 -0.038353 -0.028482
vn -0.000000 0.802835 0.596202
vn -0.000000 0.802835 0.596202
vn -0.000000 0.802835 0.596202
vn -0.000000 0.802835 0.596202
vn -0.000000 0.576495 -0.817101
vn -0.000000 0.576495 -0.817101
vn 0.000000 0.275144 -0.961403
vn 0.000000 0.275144 -0.961403
vn 0.000000 -0.615555 0.788094
vn 0.000000 -0.615555 0.788094
vn 0.000000 -0.840813 0.541325
vn 0.000000 -0.840813 0.541325
vn 0.998858 -0.038353 -0.028482
vn 0.998858 -0.038353 -0.028482
vn 0.840678 0.434763 0.322864
vn 0.840678 0.434763 0.322864
vn 0.000000 -0.316511 0.948589
vn 0.000000 -0.316511 0.948589
vn 0.000000 -0.615555 0.788094
vn 0.000000 -0.615555 0.788094
vn -0.840678 0.434763 0.322864
vn -0.840678 0.434763 0.322864
vn -0.998858 -0.038353 -0.028482
vn -0.998858 -0.038353 -0.028482
vn -0.000000 0.816587 -0.577222
vn -0.000000 0.816587 -0.577222
vn -0.000000 0.576495 -0.817101
vn -0.000000 0.576495 -0.817101
s off
g box_flap3 cardboard_box_type1
usemtl main_boxSG
f 11/19/1 12/20/2 4/4/3 3/3/4
f 3/3/5 4/4/6 6/6/7 5/5/8
f 5/5/9 6/6/10 9/15/11 10/18/12
f 7/7/13 8/8/14 2/10/15 1/9/16
f 12/20/17 9/16/18 6/12/19 4/4/20
f 10/17/21 11/19/22 3/3/23 5/14/24
f 10/18/25 9/15/26 8/8/27 7/7/28
f 7/13/29 1/1/30 11/19/31 10/17/32
f 1/1/33 2/2/34 12/20/35 11/19/36
f 2/2/37 8/11/38 9/16/39 12/20/40
g default
v -1.593684 1.625436 1.614403
v -2.605374 2.986953 1.614403
v -1.664284 1.572975 1.614403
v -2.675975 2.934493 1.614403
v -1.664284 1.572975 -1.778087
v -2.675975 2.934493 -1.778087
v -1.593684 1.625436 -1.778087
v -2.605374 2.986953 -1.778087
v -2.652306 2.971279 -1.808908
v -1.622234 1.585023 -1.808908
v -1.622234 1.585023 1.645224
v -2.652306 2.971279 1.645224
vt 0.375000 0.000000
vt 0.625000 0.000000
vt 0.375000 0.250000
vt 0.625000 0.250000
vt 0.375000 0.500000
vt 0.625000 0.500000
vt 0.375000 0.750000
vt 0.625000 0.750000
vt 0.375000 1.000000
vt 0.625000 1.000000
vt 0.875000 0.000000
vt 0.875000 0.250000
vt 0.125000 0.000000
vt 0.125000 0.250000
vt 0.625000 0.616358
vt 0.875000 0.133642
vt 0.125000 0.133642
vt 0.375000 0.616358
vt 0.375000 0.133642
vt 0.625000 0.133642
vn -0.039018 -0.028993 0.998818
vn -0.039018 -0.028993 0.998818
vn -0.482772 -0.358729 0.798902
vn -0.482772 -0.358729 0.798902
vn -0.802666 -0.596429 0.000000
vn -0.802666 -0.596429 0.000000
vn -0.802666 -0.596429 0.000000
vn -0.802666 -0.596429 0.000000
vn -0.482772 -0.358729 -0.798902
vn -0.482772 -0.358729 -0.798902
vn -0.039018 -0.028993 -0.998818
vn -0.039018 -0.028993 -0.998818
vn 0.802666 0.596429 0.000000
vn 0.802666 0.596429 0.000000
vn 0.802666 0.596429 0.000000
vn 0.802666 0.596429 0.000000
vn -0.615779 0.787919 0.000000
vn -0.615779 0.787919 0.000000
vn -0.840967 0.541087 0.000000
vn -0.840967 0.541087 0.000000
vn 0.576727 -0.816937 0.000000
vn 0.576727 -0.816937 0.000000
vn 0.275417 -0.961325 0.000000
vn 0.275417 -0.961325 0.000000
vn -0.039018 -0.028993 -0.998818
vn -0.039018 -0.028993 -0.998818
vn 0.440032 0.326970 -0.836339
vn 0.440032 0.326970 -0.836339
vn 0.816751 -0.576990 0.000000
vn 0.816751 -0.576990 0.000000
vn 0.576727 -0.816937 0.000000
vn 0.576727 -0.816937 0.000000
vn 0.440032 0.326970 0.836339
vn 0.440032 0.326970 0.836339
vn -0.039018 -0.028993 0.998818
vn -0.039018 -0.028993 0.998818
vn -0.316780 0.948499 0.000000
vn -0.316780 0.948499 0.000000
vn -0.615779 0.787919 0.000000
vn -0.615779 0.787919 0.000000
s off
g cardboard_box_type1 box_flap2
usemtl main_boxSG
f 23/39/41 24/40/42 16/24/43 15/23/44
f 15/23/45 16/24/46 18/26/47 17/25/48
f 17/25/49 18/26/50 21/35/51 22/38/52
f 19/27/53 20/28/54 14/30/55 13/29/56
f 24/40/57 21/36/58 18/32/59 16/24/60
f 22/37/61 23/39/62 15/23/63 17/34/64
f 22/38/65 21/35/66 20/28/67 19/27/68
f 19/33/69 13/21/70 23/39/71 22/37/72
f 13/21/73 14/22/74 24/40/75 23/39/76
f 14/22/77 20/31/78 21/36/79 24/40/80
g default
v -1.639596 1.550019 1.579212
v -1.639596 2.537968 2.958054
v -1.639596 1.621518 1.527983
v -1.639596 2.609467 2.906825
v 1.694268 1.621518 1.527983
v 1.694268 2.609467 2.906825
v 1.694268 1.550019 1.579212
v 1.694268 2.537968 2.958054
v 1.724556 2.585165 2.943195
v 1.724556 1.579265 1.539300
v -1.669884 1.579265 1.539300
v -1.669884 2.585165 2.943195
vt 0.375000 0.000000
vt 0.625000 0.000000
vt 0.375000 0.250000
vt 0.625000 0.250000
vt 0.375000 0.500000
vt 0.625000 0.500000
vt 0.375000 0.750000
vt 0.625000 0.750000
vt 0.375000 1.000000
vt 0.625000 1.000000
vt 0.875000 0.000000
vt 0.875000 0.250000
vt 0.125000 0.000000
vt 0.125000 0.250000
vt 0.625000 0.616358
vt 0.875000 0.133642
vt 0.125000 0.133642
vt 0.375000 0.616358
vt 0.375000 0.133642
vt 0.625000 0.133642
vn -0.998858 0.038833 -0.027824
vn -0.998858 0.038833 -0.027824
vn -0.803900 0.483472 -0.346410
vn -0.803900 0.483472 -0.346410
vn -0.000000 0.812879 -0.582433
vn -0.000000 0.812879 -0.582433
vn -0.000000 0.812879 -0.582433
vn -0.000000 0.812879 -0.582433
vn 0.803900 0.483472 -0.346410
vn 0.803900 0.483472 -0.346410
vn 0.998858 0.038833 -0.027824
vn 0.998858 0.038833 -0.027824
vn 0.000000 -0.812879 0.582433
vn 0.000000 -0.812879 0.582433
vn 0.000000 -0.812879 0.582433
vn 0.000000 -0.812879 0.582433
vn -0.000000 0.602035 0.798470
vn -0.000000 0.602035 0.798470
vn -0.000000 0.831466 0.555576
vn -0.000000 0.831466 0.555576
vn 0.000000 -0.562486 -0.826807
vn 0.000000 -0.562486 -0.826807
vn 0.000000 -0.258719 -0.965953
vn 0.000000 -0.258719 -0.965953
vn 0.998858 0.038833 -0.027824
vn 0.998858 0.038833 -0.027824
vn 0.840678 -0.440202 0.315408
vn 0.840678 -0.440202 0.315408
vn 0.000000 -0.806631 -0.591055
vn 0.000000 -0.806631 -0.591055
vn 0.000000 -0.562486 -0.826807
vn 0.000000 -0.562486 -0.826807
vn -0.840678 -0.440202 0.315408
vn -0.840678 -0.440202 0.315408
vn -0.998858 0.038833 -0.027824
vn -0.998858 0.038833 -0.027824
vn -0.000000 0.300299 0.953845
vn -0.000000 0.300299 0.953845
vn -0.000000 0.602035 0.798470
vn -0.000000 0.602035 0.798470
s off
g cardboard_box_type1 box_flap4
usemtl main_boxSG
f 35/59/81 36/60/82 28/44/83 27/43/84
f 27/43/85 28/44/86 30/46/87 29/45/88
f 29/45/89 30/46/90 33/55/91 34/58/92
f 31/47/93 32/48/94 26/50/95 25/49/96
f 36/60/97 33/56/98 30/52/99 28/44/100
f 34/57/101 35/59/102 27/43/103 29/54/104
f 34/58/105 33/55/106 32/48/107 31/47/108
f 31/53/109 25/41/110 35/59/111 34/57/112
f 25/41/113 26/42/114 36/60/115 35/59/116
f 26/42/117 32/51/118 33/56/119 36/60/120
g default
v -1.637171 -1.713639 1.586079
v 1.698671 -1.713639 1.586079
v -1.664239 1.590090 1.613147
v 1.725739 1.590090 1.613147
v -1.664239 1.590090 -1.776831
v 1.725739 1.590090 -1.776831
v -1.637171 -1.713639 -1.749763
v 1.698671 -1.713639 -1.749763
v -1.664239 1.590090 1.503870
v -1.637171 -1.713639 1.478547
v 1.698671 -1.713639 1.478547
v 1.725739 1.590090 1.503870
v -1.664239 1.590090 -1.664553
v -1.637171 -1.713639 -1.639278
v 1.698671 -1.713639 -1.639278
v 1.725739 1.590090 -1.664553
v 1.632419 1.590090 1.613147
v 1.696817 1.621906 1.567918
v 1.696817 1.621906 -1.728599
v 1.632419 1.590090 -1.776831
v 1.606841 -1.713639 -1.749763
v 1.633599 -1.749378 -1.665720
v 1.633599 -1.749378 1.505039
v 1.606841 -1.713639 1.586079
v -1.553050 1.590090 1.613147
v -1.617435 1.621906 1.567918
v -1.617435 1.621906 -1.728599
v -1.553050 1.590090 -1.776831
v -1.527758 -1.713639 -1.749763
v -1.554218 -1.749378 -1.665720
v -1.554218 -1.749378 1.505039
v -1.527758 -1.713639 1.586079
v -1.665488 1.540587 1.614396
v -1.665488 1.540587 1.505039
v -1.665488 1.540587 -1.665720
v -1.665488 1.540587 -1.778080
v -1.554218 1.540587 -1.778080
v 1.633599 1.540587 -1.778080
v 1.726988 1.540587 -1.778080
v 1.726988 1.540587 -1.665720
v 1.726988 1.540587 1.505039
v 1.726988 1.540587 1.614396
v 1.633599 1.540587 1.614396
v -1.554218 1.540587 1.614396
v -1.665488 -1.677769 1.614396
v -1.665488 -1.677769 1.505039
v -1.665488 -1.677769 -1.665720
v -1.665488 -1.677769 -1.778080
v -1.554218 -1.677769 -1.778080
v 1.633599 -1.677769 -1.778080
v 1.726988 -1.677769 -1.778080
v 1.726988 -1.677769 -1.665720
v 1.726988 -1.677769 1.505039
v 1.726988 -1.677769 1.614396
v 1.633599 -1.677769 1.614396
v -1.554218 -1.677769 1.614396
v -1.554218 -1.588043 1.505039
v -1.554218 -1.588043 -1.665720
v 1.633599 -1.588043 1.505039
v 1.633599 -1.588043 -1.665720
vt 0.375000 0.000000
vt 0.625000 0.000000
vt 0.375000 0.250000
vt 0.625000 0.250000
vt 0.375000 0.500000
vt 0.625000 0.500000
vt 0.375000 0.750000
vt 0.625000 0.750000
vt 0.375000 1.000000
vt 0.625000 1.000000
vt 0.875000 0.000000
vt 0.875000 0.250000
vt 0.125000 0.000000
vt 0.125000 0.250000
vt 0.366941 0.250000
vt 0.375000 0.258059
vt 0.366941 0.000000
vt 0.375000 0.991941
vt 0.625000 0.991941
vt 0.633059 0.000000
vt 0.625000 0.258059
vt 0.633059 0.250000
vt 0.133280 0.250000
vt 0.375000 0.491720
vt 0.133280 0.000000
vt 0.375000 0.758280
vt 0.625000 0.758280
vt 0.866720 0.000000
vt 0.625000 0.491720
vt 0.866720 0.250000
vt 0.618118 0.250000
vt 0.618118 0.258059
vt 0.618118 0.491720
vt 0.618118 0.500000
vt 0.618118 0.750000
vt 0.618118 0.758280
vt 0.618118 0.991941
vt 0.618118 0.000000
vt 0.618118 1.000000
vt 0.383200 0.250000
vt 0.383200 0.258059
vt 0.383200 0.491720
vt 0.383200 0.500000
vt 0.383200 0.750000
vt 0.383200 0.758280
vt 0.383200 0.991941
vt 0.383200 0.000000
vt 0.383200 1.000000
vt 0.375000 0.242446
vt 0.366941 0.242446
vt 0.133280 0.242446
vt 0.125000 0.242446
vt 0.375000 0.507554
vt 0.383200 0.507554
vt 0.618118 0.507554
vt 0.625000 0.507554
vt 0.875000 0.242446
vt 0.866720 0.242446
vt 0.633059 0.242446
vt 0.625000 0.242446
vt 0.618118 0.242446
vt 0.383200 0.242446
vt 0.375000 0.005277
vt 0.366941 0.005277
vt 0.133280 0.005277
vt 0.125000 0.005277
vt 0.375000 0.744723
vt 0.383200 0.744723
vt 0.618118 0.744723
vt 0.625000 0.744723
vt 0.875000 0.005277
vt 0.866720 0.005277
vt 0.633059 0.005277
vt 0.625000 0.005277
vt 0.618118 0.005277
vt 0.383200 0.005277
vt 0.383200 0.491720
vt 0.383200 0.258059
vt 0.618118 0.258059
vt 0.618118 0.491720
vn 0.000000 -0.619637 0.784889
vn 0.000000 -0.619637 0.784889
vn 0.000000 -0.327957 0.944693
vn 0.000000 -0.327957 0.944693
vn -0.307915 0.898349 0.313301
vn -0.157336 0.876959 0.454079
vn -0.307339 0.898340 0.313893
vn -0.444478 0.881377 0.160046
vn 0.000000 -0.327958 -0.944692
vn 0.000000 -0.327957 -0.944692
vn 0.000000 -0.619638 -0.784888
vn 0.000000 -0.619638 -0.784888
vn -0.304188 -0.946682 0.106130
vn -0.154984 -0.975212 0.157931
vn -0.104310 -0.945001 0.309986
vn -0.206479 -0.955630 0.210092
vn 0.784888 -0.619638 0.000000
vn 0.784889 -0.619636 0.000000
vn 0.944693 -0.327957 0.000000
vn 0.944693 -0.327957 0.000000
vn -0.784888 -0.619637 0.000000
vn -0.784889 -0.619636 0.000000
vn -0.944693 -0.327957 0.000000
vn -0.944693 -0.327957 0.000000
vn -0.784889 -0.619637 0.000000
vn -0.784888 -0.619637 0.000000
vn -0.944693 -0.327957 0.000000
vn -0.944693 -0.327957 0.000000
vn -0.303780 -0.947164 -0.102946
vn -0.154676 -0.976039 -0.153046
vn -0.154984 -0.975212 0.157931
vn -0.304188 -0.946682 0.106130
vn 0.944693 -0.327957 0.000000
vn 0.784889 -0.619636 0.000000
vn 0.784889 -0.619636 0.000000
vn 0.944693 -0.327956 0.000000
vn -0.444478 0.881377 0.160046
vn -0.307339 0.898340 0.313893
vn -0.305163 0.903793 -0.300057
vn -0.442243 0.883622 -0.153730
vn -0.784889 -0.619636 0.000000
vn -0.784889 -0.619637 0.000000
vn -0.944693 -0.327957 0.000000
vn -0.944693 -0.327956 0.000000
vn -0.205843 -0.957118 -0.203846
vn -0.103952 -0.948077 -0.300572
vn -0.154676 -0.976039 -0.153046
vn -0.303780 -0.947164 -0.102946
vn 0.944693 -0.327956 0.000000
vn 0.784889 -0.619636 0.000000
vn 0.784889 -0.619637 0.000000
vn 0.944693 -0.327957 0.000000
vn -0.442243 0.883622 -0.153730
vn -0.305163 0.903793 -0.300057
vn -0.155161 0.887141 -0.434633
vn -0.304072 0.903806 -0.301123
vn 0.205848 0.857474 0.471556
vn 0.400433 0.850128 0.341958
vn 0.589977 0.787800 0.176910
vn 0.413101 0.847898 0.332291
vn 0.410342 0.854769 -0.317787
vn 0.413101 0.847898 0.332291
vn 0.589977 0.787800 0.176910
vn 0.587169 0.791419 -0.169965
vn 0.203013 0.868903 -0.451434
vn 0.410342 0.854769 -0.317787
vn 0.587169 0.791419 -0.169965
vn 0.395424 0.857686 -0.328655
vn 0.000000 -0.619638 -0.784888
vn 0.000000 -0.327957 -0.944692
vn 0.000000 -0.327958 -0.944692
vn 0.000000 -0.619638 -0.784888
vn 0.189602 -0.969499 -0.155313
vn 0.126769 -0.944377 -0.303450
vn 0.250448 -0.945486 -0.208162
vn 0.370657 -0.922767 -0.105426
vn 0.189979 -0.968618 0.160269
vn 0.189602 -0.969499 -0.155313
vn 0.370657 -0.922767 -0.105426
vn 0.371149 -0.922191 0.108685
vn 0.127204 -0.941213 0.312950
vn 0.189979 -0.968618 0.160269
vn 0.371149 -0.922191 0.108685
vn 0.251219 -0.943855 0.214537
vn 0.000000 -0.327957 0.944693
vn 0.000000 -0.619637 0.784889
vn 0.000000 -0.619637 0.784889
vn 0.000000 -0.327957 0.944693
vn -0.157336 0.876959 0.454079
vn 0.205848 0.857474 0.471556
vn 0.413101 0.847898 0.332291
vn -0.307339 0.898340 0.313893
vn 0.000000 1.000000 0.000000
vn 0.000000 1.000000 0.000000
vn 0.000000 1.000000 0.000000
vn 0.000000 1.000000 0.000000
vn -0.155161 0.887141 -0.434633
vn -0.305163 0.903793 -0.300057
vn 0.410342 0.854769 -0.317787
vn 0.203013 0.868903 -0.451434
vn 0.000000 -0.619638 -0.784888
vn 0.000000 -0.327957 -0.944692
vn 0.000000 -0.327957 -0.944692
vn 0.000000 -0.619638 -0.784888
vn -0.154676 -0.976039 -0.153046
vn -0.103952 -0.948077 -0.300572
vn 0.126769 -0.944377 -0.303450
vn 0.189602 -0.969499 -0.155313
vn -0.154984 -0.975212 0.157931
vn -0.154676 -0.976039 -0.153046
vn 0.189602 -0.969499 -0.155313
vn 0.189979 -0.968618 0.160269
vn -0.104310 -0.945001 0.309986
vn -0.154984 -0.975212 0.157931
vn 0.189979 -0.968618 0.160269
vn 0.127204 -0.941213 0.312950
vn 0.000000 -0.327957 0.944693
vn 0.000000 -0.619637 0.784889
vn 0.000000 -0.619637 0.784889
vn 0.000000 -0.327957 0.944693
vn -0.999920 0.012617 0.000000
vn -0.999920 0.012616 0.000000
vn -0.999682 0.025229 0.000000
vn -0.999682 0.025231 0.000000
vn -0.999920 0.012617 0.000000
vn -0.999920 0.012617 0.000000
vn -0.999682 0.025231 0.000000
vn -0.999682 0.025232 0.000000
vn -0.999920 0.012617 0.000000
vn -0.999920 0.012617 0.000000
vn -0.999682 0.025232 0.000000
vn -0.999682 0.025231 0.000000
vn 0.000000 0.025231 -0.999682
vn 0.000000 0.025231 -0.999682
vn 0.000000 0.012617 -0.999920
vn 0.000000 0.012617 -0.999920
vn 0.000000 0.012617 -0.999920
vn 0.000000 0.012617 -0.999920
vn 0.000000 0.025231 -0.999682
vn 0.000000 0.025231 -0.999682
vn 0.000000 0.012617 -0.999920
vn 0.000000 0.012617 -0.999920
vn 0.000000 0.025231 -0.999682
vn 0.000000 0.025231 -0.999682
vn 0.999682 0.025231 0.000000
vn 0.999920 0.012617 0.000000
vn 0.999920 0.012616 0.000000
vn 0.999682 0.025230 0.000000
vn 0.999682 0.025232 0.000000
vn 0.999920 0.012617 0.000000
vn 0.999920 0.012617 0.000000
vn 0.999682 0.025231 0.000000
vn 0.999920 0.012617 0.000000
vn 0.999920 0.012617 0.000000
vn 0.999682 0.025232 0.000000
vn 0.999682 0.025231 0.000000
vn 0.000000 0.025231 0.999682
vn 0.000000 0.012617 0.999920
vn 0.000000 0.012617 0.999920
vn 0.000000 0.025231 0.999682
vn 0.000000 0.025231 0.999682
vn 0.000000 0.012617 0.999920
vn 0.000000 0.012617 0.999920
vn 0.000000 0.025231 0.999682
vn 0.000000 0.012617 0.999920
vn 0.000000 0.012617 0.999920
vn 0.000000 0.025231 0.999682
vn 0.000000 0.025231 0.999682
vn -0.944693 -0.327957 0.000000
vn -0.944693 -0.327957 0.000000
vn -0.999920 0.012616 0.000000
vn -0.999920 0.012617 0.000000
vn -0.944693 -0.327957 0.000000
vn -0.944693 -0.327957 0.000000
vn -0.999920 0.012617 0.000000
vn -0.999920 0.012617 0.000000
vn -0.944693 -0.327956 0.000000
vn -0.944693 -0.327957 0.000000
vn -0.999920 0.012617 0.000000
vn -0.999920 0.012617 0.000000
vn 0.000000 0.012617 -0.999920
vn 0.000000 0.012617 -0.999920
vn 0.000000 -0.327957 -0.944692
vn 0.000000 -0.327958 -0.944692
vn 0.000000 -0.327957 -0.944692
vn 0.000000 -0.327957 -0.944692
vn 0.000000 0.012617 -0.999920
vn 0.000000 0.012617 -0.999920
vn 0.000000 -0.327958 -0.944692
vn 0.000000 -0.327957 -0.944692
vn 0.000000 0.012617 -0.999920
vn 0.000000 0.012617 -0.999920
vn 0.999920 0.012617 0.000000
vn 0.944693 -0.327956 0.000000
vn 0.944693 -0.327957 0.000000
vn 0.999920 0.012616 0.000000
vn 0.999920 0.012617 0.000000
vn 0.944693 -0.327957 0.000000
vn 0.944693 -0.327956 0.000000
vn 0.999920 0.012617 0.000000
vn 0.944693 -0.327957 0.000000
vn 0.944693 -0.327957 0.000000
vn 0.999920 0.012617 0.000000
vn 0.999920 0.012617 0.000000
vn 0.000000 0.012617 0.999920
vn 0.000000 -0.327957 0.944693
vn 0.000000 -0.327957 0.944693
vn 0.000000 0.012617 0.999920
vn 0.000000 0.012617 0.999920
vn 0.000000 -0.327957 0.944693
vn 0.000000 -0.327957 0.944693
vn 0.000000 0.012617 0.999920
vn 0.000000 -0.327957 0.944693
vn 0.000000 -0.327957 0.944693
vn 0.000000 0.012617 0.999920
vn 0.000000 0.012617 0.999920
vn 0.999806 0.019690 0.000000
vn 0.999806 0.019690 0.000000
vn 0.999806 0.019690 0.000000
vn 0.999806 0.019690 0.000000
vn 0.000000 0.019585 -0.999808
vn 0.000000 0.019585 -0.999808
vn 0.000000 0.019585 -0.999808
vn 0.000000 0.019585 -0.999808
vn -0.999806 0.019690 0.000000
vn -0.999806 0.019690 0.000000
vn -0.999806 0.019690 0.000000
vn -0.999806 0.019690 0.000000
vn 0.000000 0.019585 0.999808
vn 0.000000 0.019585 0.999808
vn 0.000000 0.019585 0.999808
vn 0.000000 0.019585 0.999808
s off
g cardboard_box_type1 main_box
usemtl main_boxSG
f 37/61/121 68/107/122 92/136/123 81/123/124
f 39/63/125 61/100/126 62/101/127 45/76/128
f 84/127/129 85/128/130 65/104/131 43/67/132
f 46/78/133 67/106/134 68/108/135 37/69/136
f 38/62/137 47/80/138 89/133/139 90/134/140
f 46/77/141 37/61/142 81/123/143 82/124/144
f 50/85/145 46/77/146 82/124/147 83/125/148
f 50/86/149 66/105/150 67/106/151 46/78/152
f 89/133/153 47/80/154 51/88/155 88/132/156
f 45/76/157 62/101/158 63/102/159 49/84/160
f 43/73/161 50/85/162 83/125/163 84/126/164
f 43/67/165 65/104/166 66/105/167 50/86/168
f 88/132/169 51/88/170 44/71/171 87/131/172
f 49/84/173 63/102/174 64/103/175 41/65/176
f 53/91/177 40/64/178 48/81/179 54/92/180
f 55/93/181 54/92/182 48/81/183 52/89/184
f 56/94/185 55/93/186 52/89/187 42/66/188
f 57/95/189 86/129/190 87/130/191 44/68/192
f 58/96/193 57/95/194 44/68/195 51/87/196
f 59/97/197 58/96/198 51/87/199 47/79/200
f 60/99/201 59/97/202 47/79/203 38/70/204
f 91/135/205 60/98/206 38/62/207 90/134/208
f 61/100/209 53/91/210 54/92/211 62/101/212
f 94/137/213 93/138/214 95/139/215 96/140/216
f 64/103/217 63/102/218 55/93/219 56/94/220
f 65/104/221 85/128/222 86/129/223 57/95/224
f 66/105/225 65/104/226 57/95/227 58/96/228
f 67/106/229 66/105/230 58/96/231 59/97/232
f 68/108/233 67/106/234 59/97/235 60/99/236
f 92/136/237 68/107/238 60/98/239 91/135/240
f 70/110/241 69/109/242 39/63/243 45/75/244
f 71/111/245 70/110/246 45/75/247 49/83/248
f 72/112/249 71/111/250 49/83/251 41/74/252
f 41/65/253 64/103/254 73/114/255 72/113/256
f 74/115/257 73/114/258 64/103/259 56/94/260
f 75/116/261 74/115/262 56/94/263 42/66/264
f 52/90/265 76/118/266 75/117/267 42/72/268
f 48/82/269 77/119/270 76/118/271 52/90/272
f 78/120/273 77/119/274 48/82/275 40/64/276
f 53/91/277 79/121/278 78/120/279 40/64/280
f 61/100/281 80/122/282 79/121/283 53/91/284
f 69/109/285 80/122/286 61/100/287 39/63/288
f 82/124/289 81/123/290 69/109/291 70/110/292
f 83/125/293 82/124/294 70/110/295 71/111/296
f 84/126/297 83/125/298 71/111/299 72/112/300
f 72/113/301 73/114/302 85/128/303 84/127/304
f 86/129/305 85/128/306 73/114/307 74/115/308
f 87/130/309 86/129/310 74/115/311 75/116/312
f 76/118/313 88/132/314 87/131/315 75/117/316
f 77/119/317 89/133/318 88/132/319 76/118/320
f 90/134/321 89/133/322 77/119/323 78/120/324
f 79/121/325 91/135/326 90/134/327 78/120/328
f 80/122/329 92/136/330 91/135/331 79/121/332
f 81/123/333 92/136/334 80/122/335 69/109/336
f 63/102/337 62/101/338 93/138/339 94/137/340
f 62/101/341 54/92/342 95/139/343 93/138/344
f 54/92/345 55/93/346 96/140/347 95/139/348
f 55/93/349 63/102/350 94/137/351 96/140/352
g default
v 1.716636 1.563694 1.614403
v 3.085879 2.564905 1.614403
v 1.664719 1.634695 1.614403
v 3.033962 2.635906 1.614403
v 1.664719 1.634695 -1.778087
v 3.033962 2.635906 -1.778087
v 1.716636 1.563694 -1.778087
v 3.085879 2.564905 -1.778087
v 3.070565 2.611956 -1.808908
v 1.676444 1.592553 -1.808908
v 1.676444 1.592553 1.645224
v 3.070565 2.611956 1.645224
vt 0.375000 0.000000
vt 0.625000 0.000000
vt 0.375000 0.250000
vt 0.625000 0.250000
vt 0.375000 0.500000
vt 0.625000 0.500000
vt 0.375000 0.750000
vt 0.625000 0.750000
vt 0.375000 1.000000
vt 0.625000 1.000000
vt 0.875000 0.000000
vt 0.875000 0.250000
vt 0.125000 0.000000
vt 0.125000 0.250000
vt 0.625000 0.616358
vt 0.875000 0.133642
vt 0.125000 0.133642
vt 0.375000 0.616358
vt 0.375000 0.133642
vt 0.625000 0.133642
vn -0.028692 0.039239 0.998818
vn -0.028692 0.039239 0.998818
vn -0.355013 0.485511 0.798902
vn -0.355013 0.485511 0.798902
vn -0.590251 0.807220 0.000000
vn -0.590251 0.807220 0.000000
vn -0.590251 0.807220 0.000000
vn -0.590251 0.807220 0.000000
vn -0.355013 0.485511 -0.798902
vn -0.355013 0.485511 -0.798902
vn -0.028692 0.039239 -0.998818
vn -0.028692 0.039239 -0.998818
vn 0.590251 -0.807220 0.000000
vn 0.590251 -0.807220 0.000000
vn 0.590251 -0.807220 0.000000
vn 0.590251 -0.807220 0.000000
vn 0.792622 0.609713 0.000000
vn 0.792622 0.609713 0.000000
vn 0.547525 0.836789 0.000000
vn 0.547525 0.836789 0.000000
vn -0.821340 -0.570440 0.000000
vn -0.821340 -0.570440 0.000000
vn -0.963411 -0.268030 0.000000
vn -0.963411 -0.268030 0.000000
vn -0.028692 0.039239 -0.998818
vn -0.028692 0.039239 -0.998818
vn 0.323583 -0.442528 -0.836339
vn 0.323583 -0.442528 -0.836339
vn -0.583242 -0.812298 0.000000
vn -0.583242 -0.812298 0.000000
vn -0.821340 -0.570440 0.000000
vn -0.821340 -0.570440 0.000000
vn 0.323583 -0.442528 0.836339
vn 0.323583 -0.442528 0.836339
vn -0.028692 0.039239 0.998818
vn -0.028692 0.039239 0.998818
vn 0.950902 0.309491 0.000000
vn 0.950902 0.309491 0.000000
vn 0.792622 0.609713 0.000000
vn 0.792622 0.609713 0.000000
s off
g cardboard_box_type1 box_flap1
usemtl main_boxSG
f 107/159/353 108/160/354 100/144/355 99/143/356
f 99/143/357 100/144/358 102/146/359 101/145/360
f 101/145/361 102/146/362 105/155/363 106/158/364
f 103/147/365 104/148/366 98/150/367 97/149/368
f 108/160/369 105/156/370 102/152/371 100/144/372
f 106/157/373 107/159/374 99/143/375 101/154/376
f 106/158/377 105/155/378 104/148/379 103/147/380
f 103/153/381 97/141/382 107/159/383 106/157/384
f 97/141/385 98/142/386 108/160/387 107/159/388
f 98/142/389 104/151/390 105/156/391 108/160/392
