# This file uses centimeters as units for non-parametric coordinates.

mtllib test.mtl
g default
v -1.940351 -1.022570 -4.182592
v -1.871819 -1.022570 -4.182592
v -1.940351 -0.447044 -4.179119
v -1.871819 -0.447044 -4.179119
v -1.940124 -0.446316 -4.201549
v -1.872069 -0.446316 -4.201549
v -1.940124 -1.021842 -4.205023
v -1.872069 -1.021842 -4.205023
vt 0.375000 0.000000
vt 0.625000 0.000000
vt 0.375000 0.250000
vt 0.625000 0.250000
vt 0.375000 0.500000
vt 0.625000 0.500000
vt 0.375000 0.750000
vt 0.625000 0.750000
vt 0.375000 1.000000
vt 0.625000 1.000000
vt 0.875000 0.000000
vt 0.875000 0.250000
vt 0.125000 0.000000
vt 0.125000 0.250000
vn 0.000000 -0.006035 0.999982
vn 0.000000 -0.006035 0.999982
vn 0.000000 -0.006035 0.999982
vn 0.000000 -0.006035 0.999982
vn 0.000000 0.999474 0.032432
vn 0.000000 0.999474 0.032432
vn 0.000000 0.999474 0.032432
vn 0.000000 0.999474 0.032432
vn 0.000000 0.006035 -0.999982
vn 0.000000 0.006035 -0.999982
vn 0.000000 0.006035 -0.999982
vn 0.000000 0.006035 -0.999982
vn 0.000000 -0.999474 -0.032429
vn 0.000000 -0.999474 -0.032429
vn 0.000000 -0.999474 -0.032429
vn 0.000000 -0.999474 -0.032429
vn 0.999938 0.000067 -0.011131
vn 0.999938 0.000067 -0.011131
vn 0.999938 0.000067 -0.011131
vn 0.999938 0.000067 -0.011131
vn -0.999949 0.000061 -0.010107
vn -0.999949 0.000061 -0.010107
vn -0.999949 0.000061 -0.010107
vn -0.999949 0.000061 -0.010107
s off
g pCube118
usemtl initialShadingGroup
f 1/1/1 2/2/2 4/4/3 3/3/4
f 3/3/5 4/4/6 6/6/7 5/5/8
f 5/5/9 6/6/10 8/8/11 7/7/12
f 7/7/13 8/8/14 2/10/15 1/9/16
f 2/2/17 8/11/18 6/12/19 4/4/20
f 7/13/21 1/1/22 3/3/23 5/14/24
g default
v -2.103020 -1.021756 -4.181757
v -2.103020 -1.090288 -4.181757
v -1.407438 -1.021756 -4.178283
v -1.407438 -1.090288 -4.178283
v -1.406710 -1.021994 -4.203013
v -1.406710 -1.090050 -4.203013
v -2.102293 -1.021994 -4.206487
v -2.102293 -1.090050 -4.206487
vt 0.375000 0.000000
vt 0.625000 0.000000
vt 0.375000 0.250000
vt 0.625000 0.250000
vt 0.375000 0.500000
vt 0.625000 0.500000
vt 0.375000 0.750000
vt 0.625000 0.750000
vt 0.375000 1.000000
vt 0.625000 1.000000
vt 0.875000 0.000000
vt 0.875000 0.250000
vt 0.125000 0.000000
vt 0.125000 0.250000
vn -0.004994 -0.000000 0.999988
vn -0.004994 -0.000000 0.999988
vn -0.004994 -0.000000 0.999988
vn -0.004994 -0.000000 0.999988
vn 0.999567 0.000000 0.029417
vn 0.999567 0.000000 0.029417
vn 0.999567 0.000000 0.029417
vn 0.999567 0.000000 0.029417
vn 0.004994 0.000000 -0.999988
vn 0.004994 0.000000 -0.999988
vn 0.004994 0.000000 -0.999988
vn 0.004994 0.000000 -0.999988
vn -0.999567 0.000000 -0.029417
vn -0.999567 0.000000 -0.029417
vn -0.999567 0.000000 -0.029417
vn -0.999567 0.000000 -0.029417
vn 0.000048 -0.999954 -0.009632
vn 0.000048 -0.999954 -0.009632
vn 0.000048 -0.999954 -0.009632
vn 0.000048 -0.999954 -0.009632
vn 0.000048 0.999954 -0.009632
vn 0.000048 0.999954 -0.009632
vn 0.000048 0.999954 -0.009632
vn 0.000048 0.999954 -0.009632
s off
g pCube115
usemtl initialShadingGroup
f 9/15/25 10/16/26 12/18/27 11/17/28
f 11/17/29 12/18/30 14/20/31 13/19/32
f 13/19/33 14/20/34 16/22/35 15/21/36
f 15/21/37 16/22/38 10/24/39 9/23/40
f 10/16/41 16/25/42 14/26/43 12/18/44
f 15/27/45 9/15/46 11/17/47 13/28/48
g default
v -2.188604 -1.374020 -4.169920
v -2.088604 -1.374020 -4.169920
v -2.188604 -0.290523 -4.139580
v -2.088604 -0.290523 -4.139580
v -2.188604 -0.286730 -4.239508
v -2.088604 -0.286730 -4.239508
v -2.188604 -1.370228 -4.269848
v -2.088604 -1.370228 -4.269848
vt 0.375000 0.000000
vt 0.625000 0.000000
vt 0.375000 0.250000
vt 0.625000 0.250000
vt 0.375000 0.500000
vt 0.625000 0.500000
vt 0.375000 0.750000
vt 0.625000 0.750000
vt 0.375000 1.000000
vt 0.625000 1.000000
vt 0.875000 0.000000
vt 0.875000 0.250000
vt 0.125000 0.000000
vt 0.125000 0.250000
vn 0.000000 -0.027991 0.999608
vn 0.000000 -0.027991 0.999608
vn 0.000000 -0.027991 0.999608
vn 0.000000 -0.027991 0.999608
vn 0.000000 0.999281 0.037925
vn 0.000000 0.999281 0.037925
vn 0.000000 0.999281 0.037925
vn 0.000000 0.999281 0.037925
vn 0.000000 0.027991 -0.999608
vn 0.000000 0.027991 -0.999608
vn 0.000000 0.027991 -0.999608
vn 0.000000 0.027991 -0.999608
vn 0.000000 -0.999281 -0.037925
vn 0.000000 -0.999281 -0.037925
vn 0.000000 -0.999281 -0.037925
vn 0.000000 -0.999281 -0.037925
vn 1.000000 0.000000 0.000000
vn 1.000000 0.000000 0.000000
vn 1.000000 0.000000 0.000000
vn 1.000000 0.000000 0.000000
vn -1.000000 0.000000 0.000000
vn -1.000000 0.000000 0.000000
vn -1.000000 0.000000 0.000000
vn -1.000000 0.000000 0.000000
s off
g pCube113
usemtl initialShadingGroup
f 17/29/49 18/30/50 20/32/51 19/31/52
f 19/31/53 20/32/54 22/34/55 21/33/56
f 21/33/57 22/34/58 24/36/59 23/35/60
f 23/35/61 24/36/62 18/38/63 17/37/64
f 18/30/65 24/39/66 22/40/67 20/32/68
f 23/41/69 17/29/70 19/31/71 21/42/72
g default
v -1.417079 -1.397118 -4.169920
v -1.317079 -1.397118 -4.169920
v -1.417079 -0.288338 -4.139580
v -1.317079 -0.288338 -4.139580
v -1.417079 -0.284546 -4.239508
v -1.317079 -0.284546 -4.239508
v -1.417079 -1.393325 -4.269848
v -1.317079 -1.393325 -4.269848
vt 0.375000 0.000000
vt 0.625000 0.000000
vt 0.375000 0.250000
vt 0.625000 0.250000
vt 0.375000 0.500000
vt 0.625000 0.500000
vt 0.375000 0.750000
vt 0.625000 0.750000
vt 0.375000 1.000000
vt 0.625000 1.000000
vt 0.875000 0.000000
vt 0.875000 0.250000
vt 0.125000 0.000000
vt 0.125000 0.250000
vn 0.000000 -0.027353 0.999626
vn 0.000000 -0.027353 0.999626
vn 0.000000 -0.027353 0.999626
vn 0.000000 -0.027353 0.999626
vn 0.000000 0.999281 0.037925
vn 0.000000 0.999281 0.037925
vn 0.000000 0.999281 0.037925
vn 0.000000 0.999281 0.037925
vn 0.000000 0.027353 -0.999626
vn 0.000000 0.027353 -0.999626
vn 0.000000 0.027353 -0.999626
vn 0.000000 0.027353 -0.999626
vn 0.000000 -0.999281 -0.037925
vn 0.000000 -0.999281 -0.037925
vn 0.000000 -0.999281 -0.037925
vn 0.000000 -0.999281 -0.037925
vn 1.000000 -0.000000 -0.000000
vn 1.000000 -0.000000 -0.000000
vn 1.000000 -0.000000 -0.000000
vn 1.000000 -0.000000 -0.000000
vn -1.000000 0.000000 0.000000
vn -1.000000 0.000000 0.000000
vn -1.000000 0.000000 0.000000
vn -1.000000 0.000000 0.000000
s off
g pCube112
usemtl initialShadingGroup
f 25/43/73 26/44/74 28/46/75 27/45/76
f 27/45/77 28/46/78 30/48/79 29/47/80
f 29/47/81 30/48/82 32/50/83 31/49/84
f 31/49/85 32/50/86 26/52/87 25/51/88
f 26/44/89 32/53/90 30/54/91 28/46/92
f 31/55/93 25/43/94 27/45/95 29/56/96
g default
v -1.447305 -2.173397 -4.959035
v -1.347320 -2.175142 -4.959035
v -1.433343 -1.373519 -4.959035
v -1.333359 -1.375264 -4.959035
v -1.433343 -1.373519 -5.059035
v -1.333359 -1.375264 -5.059035
v -1.447305 -2.173397 -5.059035
v -1.347320 -2.175142 -5.059035
vt 0.375000 0.000000
vt 0.625000 0.000000
vt 0.375000 0.250000
vt 0.625000 0.250000
vt 0.375000 0.500000
vt 0.625000 0.500000
vt 0.375000 0.750000
vt 0.625000 0.750000
vt 0.375000 1.000000
vt 0.625000 1.000000
vt 0.875000 0.000000
vt 0.875000 0.250000
vt 0.125000 0.000000
vt 0.125000 0.250000
vn 0.000000 0.000000 1.000000
vn 0.000000 0.000000 1.000000
vn 0.000000 0.000000 1.000000
vn 0.000000 0.000000 1.000000
vn 0.017452 0.999848 0.000000
vn 0.017452 0.999848 0.000000
vn 0.017452 0.999848 0.000000
vn 0.017452 0.999848 0.000000
vn 0.000000 0.000000 -1.000000
vn 0.000000 0.000000 -1.000000
vn 0.000000 0.000000 -1.000000
vn 0.000000 0.000000 -1.000000
vn -0.017452 -0.999848 0.000000
vn -0.017452 -0.999848 0.000000
vn -0.017452 -0.999848 0.000000
vn -0.017452 -0.999848 0.000000
vn 0.999848 -0.017452 0.000000
vn 0.999848 -0.017452 0.000000
vn 0.999848 -0.017452 0.000000
vn 0.999848 -0.017452 0.000000
vn -0.999848 0.017452 0.000000
vn -0.999848 0.017452 0.000000
vn -0.999848 0.017452 0.000000
vn -0.999848 0.017452 0.000000
s off
g pCube111
usemtl initialShadingGroup
f 33/57/97 34/58/98 36/60/99 35/59/100
f 35/59/101 36/60/102 38/62/103 37/61/104
f 37/61/105 38/62/106 40/64/107 39/63/108
f 39/63/109 40/64/110 34/66/111 33/65/112
f 34/58/113 40/67/114 38/68/115 36/60/116
f 39/69/117 33/57/118 35/59/119 37/70/120
g default
v -2.157690 -2.175142 -4.958870
v -2.057706 -2.173397 -4.958870
v -2.171652 -1.375264 -4.958870
v -2.071668 -1.373519 -4.958870
v -2.171652 -1.375264 -5.058870
v -2.071668 -1.373519 -5.058870
v -2.157690 -2.175142 -5.058870
v -2.057706 -2.173397 -5.058870
vt 0.375000 0.000000
vt 0.625000 0.000000
vt 0.375000 0.250000
vt 0.625000 0.250000
vt 0.375000 0.500000
vt 0.625000 0.500000
vt 0.375000 0.750000
vt 0.625000 0.750000
vt 0.375000 1.000000
vt 0.625000 1.000000
vt 0.875000 0.000000
vt 0.875000 0.250000
vt 0.125000 0.000000
vt 0.125000 0.250000
vn 0.000000 0.000000 1.000000
vn 0.000000 0.000000 1.000000
vn 0.000000 0.000000 1.000000
vn 0.000000 0.000000 1.000000
vn -0.017452 0.999848 0.000000
vn -0.017452 0.999848 0.000000
vn -0.017452 0.999848 0.000000
vn -0.017452 0.999848 0.000000
vn 0.000000 0.000000 -1.000000
vn 0.000000 0.000000 -1.000000
vn 0.000000 0.000000 -1.000000
vn 0.000000 0.000000 -1.000000
vn 0.017452 -0.999848 0.000000
vn 0.017452 -0.999848 0.000000
vn 0.017452 -0.999848 0.000000
vn 0.017452 -0.999848 0.000000
vn 0.999848 0.017452 0.000000
vn 0.999848 0.017452 0.000000
vn 0.999848 0.017452 0.000000
vn 0.999848 0.017452 0.000000
vn -0.999848 -0.017452 0.000000
vn -0.999848 -0.017452 0.000000
vn -0.999848 -0.017452 0.000000
vn -0.999848 -0.017452 0.000000
s off
g pCube110
usemtl initialShadingGroup
f 41/71/121 42/72/122 44/74/123 43/73/124
f 43/73/125 44/74/126 46/76/127 45/75/128
f 45/75/129 46/76/130 48/78/131 47/77/132
f 47/77/133 48/78/134 42/80/135 41/79/136
f 42/72/137 48/81/138 46/82/139 44/74/140
f 47/83/141 41/71/142 43/73/143 45/84/144
g default
v -2.103020 -0.346996 -4.181757
v -2.103020 -0.446996 -4.181757
v -1.407438 -0.346996 -4.178283
v -1.407438 -0.446996 -4.178283
v -1.406710 -0.347235 -4.203013
v -1.406710 -0.446758 -4.203013
v -2.102293 -0.347235 -4.206487
v -2.102293 -0.446758 -4.206487
vt 0.375000 0.000000
vt 0.625000 0.000000
vt 0.375000 0.250000
vt 0.625000 0.250000
vt 0.375000 0.500000
vt 0.625000 0.500000
vt 0.375000 0.750000
vt 0.625000 0.750000
vt 0.375000 1.000000
vt 0.625000 1.000000
vt 0.875000 0.000000
vt 0.875000 0.250000
vt 0.125000 0.000000
vt 0.125000 0.250000
vn -0.004994 -0.000000 0.999988
vn -0.004994 -0.000000 0.999988
vn -0.004994 -0.000000 0.999988
vn -0.004994 -0.000000 0.999988
vn 0.999567 0.000000 0.029417
vn 0.999567 0.000000 0.029417
vn 0.999567 0.000000 0.029417
vn 0.999567 0.000000 0.029417
vn 0.004994 0.000000 -0.999988
vn 0.004994 0.000000 -0.999988
vn 0.004994 0.000000 -0.999988
vn 0.004994 0.000000 -0.999988
vn -0.999567 0.000000 -0.029418
vn -0.999567 0.000000 -0.029418
vn -0.999567 0.000000 -0.029418
vn -0.999567 0.000000 -0.029418
vn 0.000048 -0.999954 -0.009632
vn 0.000048 -0.999954 -0.009632
vn 0.000048 -0.999954 -0.009632
vn 0.000048 -0.999954 -0.009632
vn 0.000048 0.999954 -0.009632
vn 0.000048 0.999954 -0.009632
vn 0.000048 0.999954 -0.009632
vn 0.000048 0.999954 -0.009632
s off
g pCube114
usemtl initialShadingGroup
f 49/85/145 50/86/146 52/88/147 51/87/148
f 51/87/149 52/88/150 54/90/151 53/89/152
f 53/89/153 54/90/154 56/92/155 55/91/156
f 55/91/157 56/92/158 50/94/159 49/93/160
f 50/86/161 56/95/162 54/96/163 52/88/164
f 55/97/165 49/85/166 51/87/167 53/98/168
g default
v -1.435069 -2.173397 -4.180271
v -1.335084 -2.175142 -4.180271
v -1.421107 -1.373519 -4.180271
v -1.321122 -1.375264 -4.180271
v -1.421107 -1.373519 -4.280271
v -1.321122 -1.375264 -4.280271
v -1.435069 -2.173397 -4.280271
v -1.335084 -2.175142 -4.280271
vt 0.375000 0.000000
vt 0.625000 0.000000
vt 0.375000 0.250000
vt 0.625000 0.250000
vt 0.375000 0.500000
vt 0.625000 0.500000
vt 0.375000 0.750000
vt 0.625000 0.750000
vt 0.375000 1.000000
vt 0.625000 1.000000
vt 0.875000 0.000000
vt 0.875000 0.250000
vt 0.125000 0.000000
vt 0.125000 0.250000
vn 0.000000 0.000000 1.000000
vn 0.000000 0.000000 1.000000
vn 0.000000 0.000000 1.000000
vn 0.000000 0.000000 1.000000
vn 0.017452 0.999848 0.000000
vn 0.017452 0.999848 0.000000
vn 0.017452 0.999848 0.000000
vn 0.017452 0.999848 0.000000
vn 0.000000 0.000000 -1.000000
vn 0.000000 0.000000 -1.000000
vn 0.000000 0.000000 -1.000000
vn 0.000000 0.000000 -1.000000
vn -0.017452 -0.999848 0.000000
vn -0.017452 -0.999848 0.000000
vn -0.017452 -0.999848 0.000000
vn -0.017452 -0.999848 0.000000
vn 0.999848 -0.017452 0.000000
vn 0.999848 -0.017452 0.000000
vn 0.999848 -0.017452 0.000000
vn 0.999848 -0.017452 0.000000
vn -0.999848 0.017452 0.000000
vn -0.999848 0.017452 0.000000
vn -0.999848 0.017452 0.000000
vn -0.999848 0.017452 0.000000
s off
g pCube108
usemtl initialShadingGroup
f 57/99/169 58/100/170 60/102/171 59/101/172
f 59/101/173 60/102/174 62/104/175 61/103/176
f 61/103/177 62/104/178 64/106/179 63/105/180
f 63/105/181 64/106/182 58/108/183 57/107/184
f 58/100/185 64/109/186 62/110/187 60/102/188
f 63/111/189 57/99/190 59/101/191 61/112/192
g default
v -2.169992 -2.175142 -4.165151
v -2.070007 -2.173397 -4.165151
v -2.183954 -1.375264 -4.165151
v -2.083969 -1.373519 -4.165151
v -2.183954 -1.375264 -4.265151
v -2.083969 -1.373519 -4.265151
v -2.169992 -2.175142 -4.265151
v -2.070007 -2.173397 -4.265151
vt 0.375000 0.000000
vt 0.625000 0.000000
vt 0.375000 0.250000
vt 0.625000 0.250000
vt 0.375000 0.500000
vt 0.625000 0.500000
vt 0.375000 0.750000
vt 0.625000 0.750000
vt 0.375000 1.000000
vt 0.625000 1.000000
vt 0.875000 0.000000
vt 0.875000 0.250000
vt 0.125000 0.000000
vt 0.125000 0.250000
vn 0.000000 0.000000 1.000000
vn 0.000000 0.000000 1.000000
vn 0.000000 0.000000 1.000000
vn 0.000000 0.000000 1.000000
vn -0.017452 0.999848 0.000000
vn -0.017452 0.999848 0.000000
vn -0.017452 0.999848 0.000000
vn -0.017452 0.999848 0.000000
vn 0.000000 0.000000 -1.000000
vn 0.000000 0.000000 -1.000000
vn 0.000000 0.000000 -1.000000
vn 0.000000 0.000000 -1.000000
vn 0.017452 -0.999848 0.000000
vn 0.017452 -0.999848 0.000000
vn 0.017452 -0.999848 0.000000
vn 0.017452 -0.999848 0.000000
vn 0.999848 0.017452 0.000000
vn 0.999848 0.017452 0.000000
vn 0.999848 0.017452 0.000000
vn 0.999848 0.017452 0.000000
vn -0.999848 -0.017452 0.000000
vn -0.999848 -0.017452 0.000000
vn -0.999848 -0.017452 0.000000
vn -0.999848 -0.017452 0.000000
s off
g pCube109
usemtl initialShadingGroup
f 65/113/193 66/114/194 68/116/195 67/115/196
f 67/115/197 68/116/198 70/118/199 69/117/200
f 69/117/201 70/118/202 72/120/203 71/119/204
f 71/119/205 72/120/206 66/122/207 65/121/208
f 66/114/209 72/123/210 70/124/211 68/116/212
f 71/125/213 65/113/214 67/115/215 69/126/216
g default
v -2.205234 -1.418024 -4.096285
v -1.301956 -1.418024 -4.096285
v -2.205234 -1.368024 -4.096285
v -1.301956 -1.368024 -4.096285
v -2.253595 -1.368024 -5.096285
v -2.253595 -1.418024 -5.096285
v -1.253595 -1.368024 -5.096285
v -1.253595 -1.418024 -5.096285
vt 0.375000 0.000000
vt 0.625000 0.250000
vt 0.375000 0.500000
vt 0.625000 0.750000
vt 0.625000 1.000000
vt 0.375000 1.000000
vt 0.125000 0.250000
vt 0.125000 0.000000
vt 0.375000 0.250000
vt 0.375000 0.750000
vt 0.625000 0.500000
vt 0.625000 0.000000
vt 0.875000 0.000000
vt 0.875000 0.250000
vn 0.000000 0.000000 1.000000
vn 0.000000 0.000000 1.000000
vn 0.000000 0.000000 1.000000
vn 0.000000 0.000000 1.000000
vn 0.000000 1.000000 0.000000
vn 0.000000 1.000000 0.000000
vn 0.000000 1.000000 0.000000
vn 0.000000 1.000000 0.000000
vn 0.000000 0.000000 -1.000000
vn 0.000000 0.000000 -1.000000
vn 0.000000 0.000000 -1.000000
vn 0.000000 0.000000 -1.000000
vn 0.998833 0.000000 0.048305
vn 0.998833 0.000000 0.048305
vn 0.998833 0.000000 0.048305
vn 0.998833 0.000000 0.048305
vn -0.998833 0.000000 0.048305
vn -0.998833 0.000000 0.048305
vn -0.998833 0.000000 0.048305
vn -0.998833 0.000000 0.048305
vn 0.000000 -1.000000 0.000000
vn 0.000000 -1.000000 0.000000
vn 0.000000 -1.000000 0.000000
vn 0.000000 -1.000000 0.000000
s off
g pCube107
usemtl initialShadingGroup
f 73/127/217 74/138/218 76/128/219 75/135/220
f 75/135/221 76/128/222 79/137/223 77/129/224
f 78/136/225 77/129/226 79/137/227 80/130/228
f 74/138/229 80/139/230 79/140/231 76/128/232
f 77/133/233 78/134/234 73/127/235 75/135/236
f 78/136/237 80/130/238 74/131/239 73/132/240
g default
v -1.802642 -1.022570 -4.181904
v -1.734110 -1.022570 -4.181904
v -1.802642 -0.447044 -4.178431
v -1.734110 -0.447044 -4.178431
v -1.802415 -0.446316 -4.200861
v -1.734360 -0.446316 -4.200861
v -1.802415 -1.021842 -4.204335
v -1.734360 -1.021842 -4.204335
vt 0.375000 0.000000
vt 0.625000 0.000000
vt 0.375000 0.250000
vt 0.625000 0.250000
vt 0.375000 0.500000
vt 0.625000 0.500000
vt 0.375000 0.750000
vt 0.625000 0.750000
vt 0.375000 1.000000
vt 0.625000 1.000000
vt 0.875000 0.000000
vt 0.875000 0.250000
vt 0.125000 0.000000
vt 0.125000 0.250000
vn 0.000000 -0.006035 0.999982
vn 0.000000 -0.006035 0.999982
vn 0.000000 -0.006035 0.999982
vn 0.000000 -0.006035 0.999982
vn 0.000000 0.999474 0.032432
vn 0.000000 0.999474 0.032432
vn 0.000000 0.999474 0.032432
vn 0.000000 0.999474 0.032432
vn 0.000000 0.006035 -0.999982
vn 0.000000 0.006035 -0.999982
vn 0.000000 0.006035 -0.999982
vn 0.000000 0.006035 -0.999982
vn 0.000000 -0.999474 -0.032429
vn 0.000000 -0.999474 -0.032429
vn 0.000000 -0.999474 -0.032429
vn 0.000000 -0.999474 -0.032429
vn 0.999938 0.000067 -0.011131
vn 0.999938 0.000067 -0.011131
vn 0.999938 0.000067 -0.011131
vn 0.999938 0.000067 -0.011131
vn -0.999949 0.000061 -0.010107
vn -0.999949 0.000061 -0.010107
vn -0.999949 0.000061 -0.010107
vn -0.999949 0.000061 -0.010107
s off
g pCube117
usemtl initialShadingGroup
f 81/141/241 82/142/242 84/144/243 83/143/244
f 83/143/245 84/144/246 86/146/247 85/145/248
f 85/145/249 86/146/250 88/148/251 87/147/252
f 87/147/253 88/148/254 82/150/255 81/149/256
f 82/142/257 88/151/258 86/152/259 84/144/260
f 87/153/261 81/141/262 83/143/263 85/154/264
g default
v -1.650800 -1.022570 -4.181146
v -1.582267 -1.022570 -4.181146
v -1.650800 -0.447044 -4.177673
v -1.582267 -0.447044 -4.177673
v -1.650573 -0.446316 -4.200103
v -1.582517 -0.446316 -4.200103
v -1.650573 -1.021842 -4.203577
v -1.582517 -1.021842 -4.203577
vt 0.375000 0.000000
vt 0.625000 0.000000
vt 0.375000 0.250000
vt 0.625000 0.250000
vt 0.375000 0.500000
vt 0.625000 0.500000
vt 0.375000 0.750000
vt 0.625000 0.750000
vt 0.375000 1.000000
vt 0.625000 1.000000
vt 0.875000 0.000000
vt 0.875000 0.250000
vt 0.125000 0.000000
vt 0.125000 0.250000
vn 0.000000 -0.006035 0.999982
vn 0.000000 -0.006035 0.999982
vn 0.000000 -0.006035 0.999982
vn 0.000000 -0.006035 0.999982
vn 0.000000 0.999474 0.032432
vn 0.000000 0.999474 0.032432
vn 0.000000 0.999474 0.032432
vn 0.000000 0.999474 0.032432
vn 0.000000 0.006035 -0.999982
vn 0.000000 0.006035 -0.999982
vn 0.000000 0.006035 -0.999982
vn 0.000000 0.006035 -0.999982
vn 0.000000 -0.999474 -0.032429
vn 0.000000 -0.999474 -0.032429
vn 0.000000 -0.999474 -0.032429
vn 0.000000 -0.999474 -0.032429
vn 0.999938 0.000067 -0.011131
vn 0.999938 0.000067 -0.011131
vn 0.999938 0.000067 -0.011131
vn 0.999938 0.000067 -0.011131
vn -0.999949 0.000061 -0.010107
vn -0.999949 0.000061 -0.010107
vn -0.999949 0.000061 -0.010107
vn -0.999949 0.000061 -0.010107
s off
g pCube116
usemtl initialShadingGroup
f 89/155/265 90/156/266 92/158/267 91/157/268
f 91/157/269 92/158/270 94/160/271 93/159/272
f 93/159/273 94/160/274 96/162/275 95/161/276
f 95/161/277 96/162/278 90/164/279 89/163/280
f 90/156/281 96/165/282 94/166/283 92/158/284
f 95/167/285 89/155/286 91/157/287 93/168/288
