# This file uses centimeters as units for non-parametric coordinates.

mtllib computer monitor.mtl
g default
v -0.866667 -2.616069 1.379122
v 0.866667 -2.616069 1.379122
v -0.866667 -2.466069 1.379122
v 0.866667 -2.466069 1.379122
v -2.600000 -2.466069 0.379122
v -0.866667 -2.466069 0.379122
v 0.866667 -2.466069 0.379122
v 2.600000 -2.466069 0.379122
v -2.600000 -2.466069 -0.620878
v -0.866667 -2.466069 -0.620878
v 0.866667 -2.466069 -0.620878
v 2.600000 -2.466069 -0.620878
v -0.866667 -2.466069 -1.620878
v -0.866667 -2.466069 -1.620878
v 0.866667 -2.466069 -1.620878
v 0.866667 -2.466069 -1.620878
v -0.866667 -2.616069 -1.620878
v -0.866667 -2.616069 -1.620878
v 0.866667 -2.616069 -1.620878
v 0.866667 -2.616069 -1.620878
v -2.600000 -2.616069 -0.620878
v -0.866667 -2.616069 -0.620878
v 0.866667 -2.616069 -0.620878
v 2.600000 -2.616069 -0.620878
v -2.600000 -2.616069 0.379122
v -0.866667 -2.616069 0.379122
v 0.866667 -2.616069 0.379122
v 2.600000 -2.616069 0.379122
v -2.600000 -2.616069 0.679192
v -1.900070 -2.616069 1.379122
v -2.116360 -2.616069 1.344865
v -2.311478 -2.616069 1.245448
v -2.466325 -2.616069 1.090601
v -2.565743 -2.616069 0.895483
v -2.600000 -2.466069 0.679192
v -2.565743 -2.466069 0.895483
v -2.466325 -2.466069 1.090601
v -2.311478 -2.466069 1.245448
v -2.116360 -2.466069 1.344865
v -1.900070 -2.466069 1.379122
v 2.600000 -2.616069 0.679192
v 2.565743 -2.616069 0.895483
v 2.466325 -2.616069 1.090601
v 2.311478 -2.616069 1.245448
v 2.116360 -2.616069 1.344865
v 1.900070 -2.616069 1.379122
v 2.600000 -2.466069 0.679192
v 1.900070 -2.466069 1.379122
v 2.116360 -2.466069 1.344865
v 2.311478 -2.466069 1.245448
v 2.466325 -2.466069 1.090601
v 2.565743 -2.466069 0.895483
vt 0.458333 0.000000
vt 0.541667 0.250000
vt 0.458333 0.333333
vt 0.541667 0.333333
vt 0.625000 0.333333
vt 0.375000 0.416667
vt 0.458333 0.416667
vt 0.541667 0.416667
vt 0.625000 0.416667
vt 0.375000 0.500000
vt 0.458333 0.500000
vt 0.541667 0.500000
vt 0.625000 0.500000
vt 0.375000 0.750000
vt 0.458333 0.750000
vt 0.541667 0.750000
vt 0.625000 0.750000
vt 0.375000 0.833333
vt 0.458333 0.833333
vt 0.541667 0.833333
vt 0.625000 0.833333
vt 0.375000 0.916667
vt 0.541667 0.916667
vt 0.875000 0.000000
vt 0.791667 0.000000
vt 0.875000 0.250000
vt 0.791667 0.250000
vt 0.125000 0.000000
vt 0.208333 0.000000
vt 0.291667 0.000000
vt 0.125000 0.250000
vt 0.208333 0.250000
vt 0.291667 0.250000
vt 0.316673 0.250000
vt 0.408650 0.000000
vt 0.458333 0.250000
vt 0.541667 0.000000
vt 0.683327 0.000000
vt 0.708333 0.000000
vt 0.708333 0.250000
vt 0.316673 0.000000
vt 0.408650 0.250000
vt 0.591350 0.000000
vt 0.683327 0.250000
vt 0.375000 0.941672
vt 0.458333 0.916667
vt 0.458333 1.000000
vt 0.408650 1.000000
vt 0.375000 0.333333
vt 0.375000 0.308327
vt 0.541667 1.000000
vt 0.625000 0.916667
vt 0.625000 0.941672
vt 0.591350 1.000000
vt 0.625000 0.308327
vt 0.591349 0.250000
vt 0.401920 0.988334
vt 0.390255 0.000000
vt 0.395190 0.976669
vt 0.371859 0.000000
vt 0.388460 0.965003
vt 0.353464 0.000000
vt 0.381730 0.953338
vt 0.335068 0.000000
vt 0.345836 0.250000
vt 0.375000 0.279164
vt 0.375000 0.250000
vt 0.382609 0.176405
vt 0.394702 0.176405
vt 0.618270 0.953338
vt 0.664932 0.000000
vt 0.611540 0.965003
vt 0.646536 0.000000
vt 0.604810 0.976669
vt 0.628141 0.000000
vt 0.598080 0.988334
vt 0.609745 0.000000
vt 0.605298 0.176405
vt 0.617391 0.176405
vt 0.625000 0.250000
vt 0.654164 0.250000
vt 0.625000 0.279164
vn -0.027402 0.000000 0.999624
vn -0.027402 0.000000 0.999624
vn 0.000000 0.000000 1.000000
vn 0.000000 0.000000 1.000000
vn 0.000000 0.000000 1.000000
vn 0.000000 0.000000 1.000000
vn 0.027402 0.000000 0.999625
vn 0.027402 0.000000 0.999625
vn 0.000000 1.000000 0.000000
vn 0.000000 1.000000 -0.000000
vn 0.000000 1.000000 -0.000000
vn 0.000000 1.000000 0.000000
vn 0.000000 1.000000 0.000000
vn 0.000000 1.000000 0.000000
vn 0.000000 1.000000 0.000000
vn 0.000000 1.000000 0.000000
vn 0.000000 1.000000 -0.000000
vn 0.000000 1.000000 0.000000
vn 0.000000 1.000000 0.000000
vn 0.000000 0.000000 0.000000
vn 0.000000 1.000000 0.000000
vn 0.000000 0.000000 0.000000
vn 0.000000 0.000000 0.000000
vn 0.000000 0.000000 -1.000000
vn 0.000000 0.000000 -1.000000
vn 0.000000 0.000000 0.000000
vn 0.000000 0.000000 -1.000000
vn 0.000000 0.000000 -1.000000
vn 0.000000 0.000000 0.000000
vn 0.000000 0.000000 0.000000
vn 0.000000 -0.000000 0.000000
vn 0.000000 -1.000000 0.000000
vn 0.000000 -1.000000 0.000000
vn 0.000000 -1.000000 0.000000
vn 0.000000 -1.000000 0.000000
vn 0.000000 -1.000000 0.000000
vn 0.000000 -0.000000 0.000000
vn 0.000000 -1.000000 0.000000
vn 0.000000 -1.000000 0.000000
vn 0.000000 -1.000000 0.000000
vn 0.000000 -1.000000 0.000000
vn 0.000000 -1.000000 0.000000
vn 0.000000 -1.000000 0.000000
vn 0.000000 -1.000000 0.000000
vn 0.755689 0.000000 -0.654931
vn 0.499723 0.000000 -0.866186
vn 0.499723 0.000000 -0.866186
vn 0.755689 0.000000 -0.654931
vn 1.000000 0.000000 0.000000
vn 1.000000 0.000000 0.000000
vn 0.997807 0.000000 0.066198
vn 0.997807 0.000000 0.066198
vn -0.499723 0.000000 -0.866186
vn -0.755689 0.000000 -0.654931
vn -0.755689 0.000000 -0.654931
vn -0.499723 0.000000 -0.866186
vn -1.000000 0.000000 0.000000
vn -1.000000 0.000000 0.000000
vn -0.997807 0.000000 0.066198
vn -0.997807 0.000000 0.066198
vn -0.951057 0.000000 0.309017
vn -0.951057 0.000000 0.309017
vn -0.809017 0.000000 0.587786
vn -0.809017 0.000000 0.587786
vn -0.587785 0.000000 0.809017
vn -0.587785 0.000000 0.809017
vn -0.309017 0.000000 0.951056
vn -0.309017 0.000000 0.951056
vn 0.309017 0.000000 0.951056
vn 0.309017 0.000000 0.951056
vn 0.587785 0.000000 0.809017
vn 0.587785 0.000000 0.809017
vn 0.809017 0.000000 0.587786
vn 0.809017 0.000000 0.587786
vn 0.951057 0.000000 0.309017
vn 0.951057 0.000000 0.309017
vn 0.000000 -1.000000 0.000000
vn 0.000000 -1.000000 0.000000
vn 0.000000 -1.000000 0.000000
vn 0.000000 -1.000000 0.000000
vn 0.000000 -1.000000 0.000000
vn 0.000000 -1.000000 0.000000
vn 0.000000 1.000000 0.000000
vn 0.000000 1.000000 0.000000
vn 0.000000 1.000000 0.000000
vn 0.000000 1.000000 0.000000
vn 0.000000 1.000000 0.000000
vn 0.000000 1.000000 0.000000
vn 0.000000 -1.000000 0.000000
vn 0.000000 -1.000000 0.000000
vn 0.000000 -1.000000 0.000000
vn 0.000000 -1.000000 0.000000
vn 0.000000 -1.000000 0.000000
vn 0.000000 -1.000000 0.000000
vn 0.000000 1.000000 -0.000000
vn 0.000000 1.000000 -0.000000
vn 0.000000 1.000000 -0.000000
vn 0.000000 1.000000 -0.000000
vn 0.000000 1.000000 -0.000000
vn 0.000000 1.000000 -0.000000
s 1
g pCube2
usemtl initialShadingGroup
f 40/42/1 30/35/2 1/1/3 3/36/4
f 1/1/3 2/37/5 4/2/6 3/36/4
f 2/37/5 46/43/7 48/56/8 4/2/6
s 2
f 3/36/9 4/2/10 7/4/11 6/3/12
f 5/49/13 6/3/12 10/7/14 9/6/15
f 6/3/12 7/4/11 11/8/16 10/7/14
f 7/4/11 8/5/17 12/9/18 11/8/16
f 9/6/15 10/7/14 14/11/19 13/10/20
f 10/7/14 11/8/16 15/12/21 14/11/19
f 11/8/16 12/9/18 16/13/22 15/12/21
s 3
f 13/10/23 14/11/24 18/15/25 17/14/26
f 14/11/24 15/12/27 19/16/28 18/15/25
f 15/12/27 16/13/29 20/17/30 19/16/28
s 4
f 17/14/31 18/15/32 22/19/33 21/18/34
f 18/15/32 19/16/35 23/20/36 22/19/33
f 19/16/35 20/17/37 24/21/38 23/20/36
f 21/18/34 22/19/33 26/46/39 25/22/40
f 22/19/33 23/20/36 27/23/41 26/46/39
f 23/20/36 24/21/38 28/52/42 27/23/41
f 26/46/39 27/23/41 2/51/43 1/47/44
s 1
f 24/25/45 20/24/46 16/26/47 12/27/48
f 28/39/49 24/25/45 12/27/48 8/40/50
f 47/44/51 41/38/52 28/39/49 8/40/50
f 17/28/53 21/29/54 9/32/55 13/31/56
f 21/29/54 25/30/57 5/33/58 9/32/55
f 25/30/57 29/41/59 35/34/60 5/33/58
f 29/41/59 34/64/61 36/65/62 35/34/60
f 34/64/61 33/62/63 37/67/64 36/65/62
f 33/62/63 32/60/65 38/68/66 37/67/64
f 32/60/65 31/58/67 39/69/68 38/68/66
f 31/58/67 30/35/2 40/42/1 39/69/68
f 46/43/7 45/77/69 49/78/70 48/56/8
f 45/77/69 44/75/71 50/79/72 49/78/70
f 44/75/71 43/73/73 51/80/74 50/79/72
f 43/73/73 42/71/75 52/81/76 51/80/74
f 42/71/75 41/38/52 47/44/51 52/81/76
s 4
f 29/45/77 25/22/40 26/46/39 1/47/44 30/48/78 31/57/79 32/59/80 33/61/81 34/63/82
s 2
f 3/36/9 6/3/12 5/49/13 35/50/83 36/66/84 37/67/85 38/68/86 39/69/87 40/42/88
s 4
f 2/51/43 27/23/41 28/52/42 41/53/89 42/70/90 43/72/91 44/74/92 45/76/93 46/54/94
s 2
f 47/55/95 8/5/17 7/4/11 4/2/10 48/56/96 49/78/97 50/79/98 51/80/99 52/82/100
g default
v -0.468643 -2.466069 -0.508337
v 0.354372 -2.466069 -0.508337
v -0.468643 1.033930 -0.508337
v 0.354372 1.033930 -0.508337
v -0.262001 1.033931 -1.008337
v 0.147730 1.033931 -1.008337
v -0.262001 -2.466069 -1.008337
v 0.147730 -2.466069 -1.008337
vt 0.375000 0.000000
vt 0.625000 0.000000
vt 0.375000 0.250000
vt 0.625000 0.250000
vt 0.375000 0.500000
vt 0.625000 0.500000
vt 0.375000 0.750000
vt 0.625000 0.750000
vt 0.375000 1.000000
vt 0.625000 1.000000
vt 0.875000 0.000000
vt 0.875000 0.250000
vt 0.125000 0.000000
vt 0.125000 0.250000
vn 0.000000 0.000000 1.000000
vn 0.000000 0.000000 1.000000
vn 0.000000 0.000000 1.000000
vn 0.000000 0.000000 1.000000
vn 0.000000 1.000000 0.000001
vn 0.000000 1.000000 0.000001
vn 0.000000 1.000000 0.000001
vn 0.000000 1.000000 0.000001
vn 0.000000 0.000000 -1.000000
vn 0.000000 0.000000 -1.000000
vn 0.000000 0.000000 -1.000000
vn 0.000000 0.000000 -1.000000
vn 0.000000 -1.000000 0.000001
vn 0.000000 -1.000000 0.000001
vn 0.000000 -1.000000 0.000001
vn 0.000000 -1.000000 0.000001
vn 0.924183 0.000000 -0.381950
vn 0.924183 0.000000 -0.381950
vn 0.924183 0.000000 -0.381950
vn 0.924183 0.000000 -0.381950
vn -0.924183 0.000000 -0.381950
vn -0.924183 0.000000 -0.381950
vn -0.924183 0.000000 -0.381950
vn -0.924183 0.000000 -0.381950
s off
g pCube3
usemtl initialShadingGroup
f 53/83/101 54/84/102 56/86/103 55/85/104
f 55/85/105 56/86/106 58/88/107 57/87/108
f 57/87/109 58/88/110 60/90/111 59/89/112
f 59/89/113 60/90/114 54/92/115 53/91/116
f 54/84/117 60/93/118 58/94/119 56/86/120
f 59/95/121 53/83/122 55/85/123 57/96/124
g default
v -5.750000 -0.840048 0.929977
v -5.577420 -0.840048 0.929977
v 5.577420 -0.840048 0.929977
v 5.750000 -0.840048 0.929977
v -5.750000 -0.590230 0.929977
v -5.577420 -0.590230 0.929977
v 5.577420 -0.590230 0.929977
v 5.750000 -0.590230 0.929977
v -5.750000 5.910133 0.929977
v -5.577420 5.910133 0.929977
v 5.577420 5.910133 0.929977
v 5.750000 5.910133 0.929977
v -5.750000 6.159952 0.929977
v -5.577420 6.159952 0.929977
v 5.577420 6.159952 0.929977
v 5.750000 6.159952 0.929977
v -5.750000 6.159952 0.329977
v -5.577420 6.159952 0.329977
v 5.577420 6.159952 0.329977
v 5.750000 6.159952 0.329977
v -5.750000 5.910133 0.329977
v -5.577420 5.910133 0.206495
v 5.577420 5.910133 0.206495
v 5.750000 5.910133 0.329977
v -5.750000 -0.590229 0.329977
v -5.577420 -0.590229 0.206495
v 5.577420 -0.590229 0.206495
v 5.750000 -0.590229 0.329977
v -5.750000 -0.840048 0.329977
v -5.577420 -0.840048 0.329977
v 5.577420 -0.840048 0.329977
v 5.750000 -0.840048 0.329977
v -5.577420 -0.590230 0.876261
v 5.577420 -0.590230 0.876261
v 5.577420 5.910133 0.876261
v -5.577420 5.910133 0.876261
vt 0.375000 0.000000
vt 0.458333 0.000000
vt 0.541667 0.000000
vt 0.625000 0.000000
vt 0.375000 0.083333
vt 0.458333 0.083333
vt 0.541667 0.083333
vt 0.625000 0.083333
vt 0.375000 0.166667
vt 0.458333 0.166667
vt 0.541667 0.166667
vt 0.625000 0.166667
vt 0.375000 0.250000
vt 0.458333 0.250000
vt 0.541667 0.250000
vt 0.625000 0.250000
vt 0.375000 0.500000
vt 0.458333 0.500000
vt 0.541667 0.500000
vt 0.625000 0.500000
vt 0.375000 0.583333
vt 0.458333 0.583333
vt 0.541667 0.583333
vt 0.625000 0.583333
vt 0.375000 0.666667
vt 0.458333 0.666667
vt 0.541667 0.666667
vt 0.625000 0.666667
vt 0.375000 0.750000
vt 0.458333 0.750000
vt 0.541667 0.750000
vt 0.625000 0.750000
vt 0.375000 1.000000
vt 0.458333 1.000000
vt 0.541667 1.000000
vt 0.625000 1.000000
vt 0.875000 0.000000
vt 0.875000 0.083333
vt 0.875000 0.166667
vt 0.875000 0.250000
vt 0.125000 0.000000
vt 0.125000 0.083333
vt 0.125000 0.166667
vt 0.125000 0.250000
vt 0.458333 0.083333
vt 0.541667 0.083333
vt 0.541667 0.166667
vt 0.458333 0.166667
vn 0.000000 0.000000 1.000000
vn 0.000000 0.000000 1.000000
vn 0.000000 0.000000 1.000000
vn 0.000000 0.000000 1.000000
vn 0.000000 0.000000 1.000000
vn 0.000000 0.000000 1.000000
vn 0.000000 0.000000 1.000000
vn 0.000000 0.000000 1.000000
vn 0.000000 0.000000 1.000000
vn 0.000000 0.000000 1.000000
vn 0.000000 0.000000 1.000000
vn 0.000000 0.000000 1.000000
vn 0.000000 0.000000 1.000000
vn 0.000000 0.000000 1.000000
vn 0.000000 0.000000 1.000000
vn 0.000000 0.000000 1.000000
vn 0.000000 0.000000 1.000000
vn 0.000000 0.000000 1.000000
vn 0.000000 0.000000 1.000000
vn 0.000000 0.000000 1.000000
vn 0.000000 1.000000 0.000000
vn 0.000000 1.000000 0.000000
vn 0.000000 1.000000 0.000000
vn 0.000000 1.000000 0.000000
vn 0.000000 1.000000 0.000000
vn 0.000000 1.000000 0.000000
vn 0.000000 1.000000 0.000000
vn 0.000000 1.000000 0.000000
vn -0.328081 0.226646 -0.917058
vn -0.004894 0.440388 -0.897794
vn -0.010665 0.018128 -0.999779
vn -0.574691 0.007485 -0.818336
vn 0.004894 0.440388 -0.897794
vn 0.010665 0.018128 -0.999779
vn 0.328080 0.226645 -0.917058
vn 0.574690 0.007485 -0.818337
vn -0.010665 -0.018128 -0.999779
vn -0.574691 -0.007485 -0.818336
vn 0.010665 -0.018128 -0.999779
vn 0.574690 -0.007485 -0.818337
vn -0.004894 -0.440387 -0.897795
vn -0.328081 -0.226645 -0.917058
vn 0.004894 -0.440387 -0.897795
vn 0.328080 -0.226645 -0.917058
vn 0.000000 -1.000000 0.000000
vn 0.000000 -1.000000 0.000000
vn 0.000000 -1.000000 0.000000
vn 0.000000 -1.000000 0.000000
vn 0.000000 -1.000000 0.000000
vn 0.000000 -1.000000 0.000000
vn 0.000000 -1.000000 0.000000
vn 0.000000 -1.000000 0.000000
vn 1.000000 0.000000 0.000000
vn 1.000000 0.000000 0.000000
vn 1.000000 0.000000 0.000000
vn 1.000000 0.000000 0.000000
vn 1.000000 0.000000 0.000000
vn 1.000000 0.000000 0.000000
vn 1.000000 0.000000 0.000000
vn 1.000000 0.000000 0.000000
vn -1.000000 0.000000 0.000000
vn -1.000000 0.000000 0.000000
vn -1.000000 0.000000 0.000000
vn -1.000000 0.000000 0.000000
vn -1.000000 0.000000 0.000000
vn -1.000000 0.000000 0.000000
vn -1.000000 0.000000 0.000000
vn -1.000000 0.000000 0.000000
vn 0.000000 1.000000 0.000000
vn 0.000000 1.000000 0.000000
vn 0.000000 1.000000 0.000000
vn 0.000000 1.000000 0.000000
vn -1.000000 0.000000 0.000000
vn -1.000000 0.000000 0.000000
vn -1.000000 0.000000 0.000000
vn -1.000000 0.000000 0.000000
vn 0.000000 -1.000000 0.000000
vn 0.000000 -1.000000 0.000000
vn 0.000000 -1.000000 0.000000
vn 0.000000 -1.000000 0.000000
vn 1.000000 0.000000 0.000000
vn 1.000000 0.000000 0.000000
vn 1.000000 0.000000 0.000000
vn 1.000000 0.000000 0.000000
s 1
g pCube1
usemtl initialShadingGroup
f 61/97/125 62/98/126 66/102/127 65/101/128
f 62/98/126 63/99/129 67/103/130 66/102/127
f 63/99/129 64/100/131 68/104/132 67/103/130
f 65/101/128 66/102/127 70/106/133 69/105/134
s off
f 93/141/135 94/142/136 95/143/137 96/144/138
s 1
f 67/103/130 68/104/132 72/108/139 71/107/140
f 69/105/134 70/106/133 74/110/141 73/109/142
f 70/106/133 71/107/140 75/111/143 74/110/141
f 71/107/140 72/108/139 76/112/144 75/111/143
s 2
f 73/109/145 74/110/146 78/114/147 77/113/148
f 74/110/146 75/111/149 79/115/150 78/114/147
f 75/111/149 76/112/151 80/116/152 79/115/150
s 3
f 77/113/153 78/114/154 82/118/155 81/117/156
f 78/114/154 79/115/157 83/119/158 82/118/155
f 79/115/157 80/116/159 84/120/160 83/119/158
f 81/117/156 82/118/155 86/122/161 85/121/162
f 82/118/155 83/119/158 87/123/163 86/122/161
f 83/119/158 84/120/160 88/124/164 87/123/163
f 85/121/162 86/122/161 90/126/165 89/125/166
f 86/122/161 87/123/163 91/127/167 90/126/165
f 87/123/163 88/124/164 92/128/168 91/127/167
s 4
f 89/125/169 90/126/170 62/130/171 61/129/172
f 90/126/170 91/127/173 63/131/174 62/130/171
f 91/127/173 92/128/175 64/132/176 63/131/174
s 5
f 64/100/177 92/133/178 88/134/179 68/104/180
f 68/104/180 88/134/179 84/135/181 72/108/182
f 72/108/182 84/135/181 80/136/183 76/112/184
s 6
f 89/137/185 61/97/186 65/101/187 85/138/188
f 85/138/188 65/101/187 69/105/189 81/139/190
f 81/139/190 69/105/189 73/109/191 77/140/192
s off
f 66/102/193 67/103/194 94/142/195 93/141/196
f 67/103/197 71/107/198 95/143/199 94/142/200
f 71/107/201 70/106/202 96/144/203 95/143/204
f 70/106/205 66/102/206 93/141/207 96/144/208
g default
v -0.468643 0.333930 0.206495
v 0.354372 0.333930 0.206495
v -0.468643 0.764184 0.206495
v 0.354372 0.764184 0.206495
v -0.468643 1.033930 -0.508337
v 0.354372 1.033930 -0.508337
v -0.468643 0.333930 -0.508337
v 0.354372 0.333930 -0.508337
vt 0.375000 0.000000
vt 0.625000 0.000000
vt 0.375000 0.250000
vt 0.625000 0.250000
vt 0.375000 0.500000
vt 0.625000 0.500000
vt 0.375000 0.750000
vt 0.625000 0.750000
vt 0.375000 1.000000
vt 0.625000 1.000000
vt 0.875000 0.000000
vt 0.875000 0.250000
vt 0.125000 0.000000
vt 0.125000 0.250000
vn 0.000000 0.000000 1.000000
vn 0.000000 0.000000 1.000000
vn 0.000000 0.000000 1.000000
vn 0.000000 0.000000 1.000000
vn 0.000000 0.935602 0.353056
vn 0.000000 0.935602 0.353056
vn 0.000000 0.935602 0.353056
vn 0.000000 0.935602 0.353056
vn 0.000000 0.000000 -1.000000
vn 0.000000 0.000000 -1.000000
vn 0.000000 0.000000 -1.000000
vn 0.000000 0.000000 -1.000000
vn 0.000000 -1.000000 0.000000
vn 0.000000 -1.000000 0.000000
vn 0.000000 -1.000000 0.000000
vn 0.000000 -1.000000 0.000000
vn 1.000000 0.000000 0.000000
vn 1.000000 0.000000 0.000000
vn 1.000000 0.000000 0.000000
vn 1.000000 0.000000 0.000000
vn -1.000000 0.000000 0.000000
vn -1.000000 0.000000 0.000000
vn -1.000000 0.000000 0.000000
vn -1.000000 0.000000 0.000000
s off
g pCube4
usemtl initialShadingGroup
f 97/145/209 98/146/210 100/148/211 99/147/212
f 99/147/213 100/148/214 102/150/215 101/149/216
f 101/149/217 102/150/218 104/152/219 103/151/220
f 103/151/221 104/152/222 98/154/223 97/153/224
f 98/146/225 104/155/226 102/156/227 100/148/228
f 103/157/229 97/145/230 99/147/231 101/158/232
