# This file uses centimeters as units for non-parametric coordinates.

mtllib document.mtl
g default
v -3.024162 2.271778 -0.012199
v -0.943140 2.347287 -0.009087
v -0.437774 2.365624 -0.008331
v 0.444671 1.981903 -0.012133
v 2.525693 2.057412 -0.009021
v -2.869883 -1.982827 0.052524
v -0.788860 -1.907318 0.055636
v -0.283494 -1.888981 0.056391
v 0.583878 -1.857509 0.057688
v 2.664900 -1.782000 0.060800
v -2.869088 -2.002692 0.003394
v -0.788066 -1.927183 0.006506
v -0.282700 -1.908846 0.007261
v 0.584672 -1.877374 0.008558
v 2.665694 -1.801865 0.011670
v -2.869718 -1.983306 -0.045930
v -0.788695 -1.907797 -0.042818
v -0.283329 -1.889460 -0.042062
v 0.584042 -1.857988 -0.040765
v 2.665065 -1.782479 -0.037654
v -3.023987 2.271264 -0.117716
v -0.942964 2.346773 -0.114604
v -0.437598 2.365110 -0.113849
v 0.429774 2.396583 -0.112552
v 2.510796 2.472092 -0.109440
v -3.024168 2.271822 -0.009342
v -0.943146 2.347331 -0.006231
v -0.437765 2.365671 -0.005475
v 0.444688 1.981956 -0.009277
v 2.525687 2.057464 -0.006165
v -2.869829 -1.984405 0.054905
v -0.788806 -1.908896 0.058016
v -0.283440 -1.890559 0.058772
v 0.583933 -1.859085 0.060070
v 2.664954 -1.783574 0.063183
v -2.868985 -2.005547 0.003408
v -0.787962 -1.930038 0.006520
v -0.282596 -1.911701 0.007275
v 0.584775 -1.880228 0.008572
v 2.665798 -1.804719 0.011684
v -2.869655 -1.984933 -0.048277
v -0.788633 -1.909424 -0.045165
v -0.283267 -1.891087 -0.044409
v 0.584105 -1.859615 -0.043112
v 2.665127 -1.784106 -0.040001
v -3.023981 2.271216 -0.120573
v -0.942958 2.346725 -0.117460
v -0.437592 2.365063 -0.116705
v 0.429780 2.396535 -0.115408
v 2.510802 2.472044 -0.112296
vt 0.000000 0.000000
vt 4.500000 0.000000
vt 9.000000 0.000000
vt 13.500000 0.000000
vt 18.000000 0.000000
vt 0.000000 6.000000
vt 4.500000 6.000000
vt 9.000000 6.000000
vt 13.500000 6.000000
vt 18.000000 6.000000
vt 0.000000 12.000000
vt 4.500000 12.000000
vt 9.000000 12.000000
vt 13.500000 12.000000
vt 18.000000 12.000000
vt 0.000000 18.000000
vt 4.500000 18.000000
vt 9.000000 18.000000
vt 13.500000 18.000000
vt 18.000000 18.000000
vt 0.000000 24.000000
vt 4.500000 24.000000
vt 9.000000 24.000000
vt 13.500000 24.000000
vt 18.000000 24.000000
vt 4.500000 6.000000
vt 4.500000 0.000000
vt 0.000000 0.000000
vt 0.000000 0.000000
vt 0.000000 6.000000
vt 4.500000 6.000000
vt 9.000000 6.000000
vt 9.000000 0.000000
vt 4.500000 0.000000
vt 4.500000 0.000000
vt 4.500000 6.000000
vt 9.000000 6.000000
vt 13.500000 6.000000
vt 13.500000 0.000000
vt 9.000000 0.000000
vt 9.000000 0.000000
vt 9.000000 6.000000
vt 13.500000 6.000000
vt 18.000000 6.000000
vt 18.000000 0.000000
vt 13.500000 0.000000
vt 13.500000 0.000000
vt 13.500000 6.000000
vt 18.000000 6.000000
vt 4.500000 12.000000
vt 4.500000 6.000000
vt 0.000000 6.000000
vt 0.000000 6.000000
vt 0.000000 12.000000
vt 4.500000 12.000000
vt 9.000000 12.000000
vt 9.000000 6.000000
vt 4.500000 6.000000
vt 4.500000 6.000000
vt 4.500000 12.000000
vt 9.000000 12.000000
vt 13.500000 12.000000
vt 13.500000 6.000000
vt 9.000000 6.000000
vt 9.000000 6.000000
vt 9.000000 12.000000
vt 13.500000 12.000000
vt 18.000000 12.000000
vt 18.000000 6.000000
vt 13.500000 6.000000
vt 13.500000 6.000000
vt 13.500000 12.000000
vt 18.000000 12.000000
vt 4.500000 18.000000
vt 4.500000 12.000000
vt 0.000000 12.000000
vt 0.000000 12.000000
vt 0.000000 18.000000
vt 4.500000 18.000000
vt 9.000000 18.000000
vt 9.000000 12.000000
vt 4.500000 12.000000
vt 4.500000 12.000000
vt 4.500000 18.000000
vt 9.000000 18.000000
vt 13.500000 18.000000
vt 13.500000 12.000000
vt 9.000000 12.000000
vt 9.000000 12.000000
vt 9.000000 18.000000
vt 13.500000 18.000000
vt 18.000000 18.000000
vt 18.000000 12.000000
vt 13.500000 12.000000
vt 13.500000 12.000000
vt 13.500000 18.000000
vt 18.000000 18.000000
vt 4.500000 24.000000
vt 4.500000 18.000000
vt 0.000000 18.000000
vt 0.000000 18.000000
vt 0.000000 24.000000
vt 4.500000 24.000000
vt 9.000000 24.000000
vt 9.000000 18.000000
vt 4.500000 18.000000
vt 4.500000 18.000000
vt 4.500000 24.000000
vt 9.000000 24.000000
vt 13.500000 24.000000
vt 13.500000 18.000000
vt 9.000000 18.000000
vt 9.000000 18.000000
vt 9.000000 24.000000
vt 13.500000 24.000000
vt 18.000000 24.000000
vt 18.000000 18.000000
vt 13.500000 18.000000
vt 13.500000 18.000000
vt 13.500000 24.000000
vt 18.000000 24.000000
vt 0.000000 0.000000
vt 0.000000 0.000000
vt 4.500000 0.000000
vt 0.000000 6.000000
vt 0.000000 6.000000
vt 0.000000 0.000000
vt 4.500000 0.000000
vt 4.500000 0.000000
vt 9.000000 0.000000
vt 9.000000 0.000000
vt 9.000000 0.000000
vt 13.500000 0.000000
vt 13.500000 0.000000
vt 13.500000 0.000000
vt 18.000000 0.000000
vt 18.000000 0.000000
vt 18.000000 0.000000
vt 18.000000 6.000000
vt 0.000000 12.000000
vt 0.000000 12.000000
vt 0.000000 6.000000
vt 18.000000 6.000000
vt 18.000000 6.000000
vt 18.000000 12.000000
vt 0.000000 18.000000
vt 0.000000 18.000000
vt 0.000000 12.000000
vt 18.000000 12.000000
vt 18.000000 12.000000
vt 18.000000 18.000000
vt 4.500000 24.000000
vt 4.500000 24.000000
vt 0.000000 24.000000
vt 0.000000 24.000000
vt 0.000000 24.000000
vt 0.000000 18.000000
vt 9.000000 24.000000
vt 9.000000 24.000000
vt 4.500000 24.000000
vt 13.500000 24.000000
vt 13.500000 24.000000
vt 9.000000 24.000000
vt 18.000000 18.000000
vt 18.000000 18.000000
vt 18.000000 24.000000
vt 18.000000 24.000000
vt 18.000000 24.000000
vt 13.500000 24.000000
vn 0.002044 -0.015136 -0.999883
vn 0.002045 -0.015136 -0.999883
vn -0.018795 0.552334 -0.833411
vn -0.018795 0.552334 -0.833411
vn -0.018795 0.552334 -0.833411
vn 0.002044 -0.015136 -0.999883
vn 0.002045 -0.015136 -0.999883
vn -0.002907 -0.016334 -0.999862
vn -0.018795 0.552334 -0.833411
vn -0.018795 0.552334 -0.833411
vn -0.018795 0.552334 -0.833411
vn 0.002045 -0.015136 -0.999883
vn -0.002907 -0.016334 -0.999862
vn -0.006034 -0.018401 -0.999812
vn -0.019334 0.551615 -0.833875
vn -0.019334 0.551615 -0.833875
vn -0.018795 0.552334 -0.833411
vn -0.002907 -0.016334 -0.999862
vn -0.006034 -0.018401 -0.999812
vn 0.002152 -0.018104 -0.999834
vn -0.018749 0.551096 -0.834231
vn -0.018749 0.551096 -0.834231
vn -0.019334 0.551615 -0.833875
vn -0.006034 -0.018401 -0.999812
vn -0.018795 0.552334 -0.833411
vn -0.018795 0.552334 -0.833411
vn -0.036253 0.999331 -0.004921
vn -0.036253 0.999331 -0.004921
vn -0.036253 0.999331 -0.004921
vn -0.018795 0.552334 -0.833411
vn -0.018795 0.552334 -0.833411
vn -0.018795 0.552334 -0.833411
vn -0.036253 0.999331 -0.004921
vn -0.036253 0.999331 -0.004921
vn -0.036253 0.999331 -0.004921
vn -0.018795 0.552334 -0.833411
vn -0.018795 0.552334 -0.833411
vn -0.019334 0.551615 -0.833875
vn -0.036253 0.999331 -0.004921
vn -0.036253 0.999331 -0.004921
vn -0.036253 0.999331 -0.004921
vn -0.018795 0.552334 -0.833411
vn -0.019334 0.551615 -0.833875
vn -0.018749 0.551096 -0.834231
vn -0.036253 0.999331 -0.004920
vn -0.036253 0.999331 -0.004920
vn -0.036253 0.999331 -0.004921
vn -0.019334 0.551615 -0.833875
vn -0.036253 0.999331 -0.004921
vn -0.036253 0.999331 -0.004921
vn -0.021895 0.569571 0.821650
vn -0.021895 0.569571 0.821650
vn -0.021895 0.569571 0.821650
vn -0.036253 0.999331 -0.004921
vn -0.036253 0.999331 -0.004921
vn -0.036253 0.999331 -0.004921
vn -0.021895 0.569571 0.821650
vn -0.021895 0.569571 0.821650
vn -0.021895 0.569571 0.821650
vn -0.036253 0.999331 -0.004921
vn -0.036253 0.999331 -0.004921
vn -0.036253 0.999331 -0.004921
vn -0.021895 0.569571 0.821651
vn -0.021895 0.569571 0.821651
vn -0.021895 0.569571 0.821650
vn -0.036253 0.999331 -0.004921
vn -0.036253 0.999331 -0.004921
vn -0.036253 0.999331 -0.004920
vn -0.021895 0.569571 0.821651
vn -0.021895 0.569571 0.821651
vn -0.021895 0.569571 0.821651
vn -0.036253 0.999331 -0.004921
vn -0.021895 0.569571 0.821650
vn -0.021895 0.569571 0.821650
vn -0.002105 0.016794 0.999857
vn -0.002105 0.016794 0.999857
vn -0.002105 0.016794 0.999857
vn -0.021895 0.569571 0.821650
vn -0.021895 0.569571 0.821650
vn -0.021895 0.569571 0.821650
vn -0.002104 0.016794 0.999857
vn -0.002104 0.016794 0.999857
vn -0.002105 0.016794 0.999857
vn -0.021895 0.569571 0.821650
vn -0.021895 0.569571 0.821650
vn -0.021895 0.569571 0.821651
vn -0.002104 0.016794 0.999857
vn -0.002104 0.016794 0.999857
vn -0.002104 0.016794 0.999857
vn -0.021895 0.569571 0.821650
vn -0.021895 0.569571 0.821651
vn -0.021895 0.569571 0.821651
vn -0.002104 0.016794 0.999857
vn -0.002104 0.016794 0.999857
vn -0.002104 0.016794 0.999857
vn -0.021895 0.569571 0.821651
vn 0.018714 -0.550161 0.834849
vn -0.002040 0.015019 0.999885
vn -0.002040 0.015019 0.999885
vn -0.002040 0.015019 0.999885
vn 0.018714 -0.550161 0.834849
vn 0.018714 -0.550161 0.834849
vn 0.018714 -0.550161 0.834849
vn 0.002890 0.016211 0.999864
vn -0.002040 0.015019 0.999885
vn -0.002040 0.015019 0.999885
vn 0.018714 -0.550161 0.834849
vn 0.018714 -0.550161 0.834849
vn 0.019249 -0.549434 0.835315
vn 0.006004 0.018269 0.999815
vn 0.002890 0.016211 0.999864
vn 0.002890 0.016211 0.999864
vn 0.018714 -0.550161 0.834849
vn 0.019249 -0.549434 0.835315
vn 0.018667 -0.548908 0.835674
vn -0.002147 0.017974 0.999836
vn 0.006004 0.018269 0.999815
vn 0.006004 0.018269 0.999815
vn 0.019249 -0.549434 0.835315
vn 0.018667 -0.548908 0.835674
vn 0.036253 -0.999330 0.005079
vn 0.018714 -0.550161 0.834849
vn 0.018714 -0.550161 0.834849
vn 0.018714 -0.550161 0.834849
vn 0.036253 -0.999330 0.005079
vn 0.036253 -0.999330 0.005079
vn 0.036253 -0.999330 0.005080
vn 0.018714 -0.550161 0.834849
vn 0.018714 -0.550161 0.834849
vn 0.018714 -0.550161 0.834849
vn 0.036253 -0.999330 0.005079
vn 0.036253 -0.999330 0.005080
vn 0.036253 -0.999330 0.005091
vn 0.019249 -0.549434 0.835315
vn 0.018714 -0.550161 0.834849
vn 0.018714 -0.550161 0.834849
vn 0.036253 -0.999330 0.005080
vn 0.036253 -0.999330 0.005091
vn 0.036253 -0.999330 0.005100
vn 0.018667 -0.548908 0.835674
vn 0.019249 -0.549434 0.835315
vn 0.019249 -0.549434 0.835315
vn 0.036253 -0.999330 0.005091
vn 0.036253 -0.999330 0.005100
vn 0.021824 -0.567558 -0.823044
vn 0.036253 -0.999330 0.005079
vn 0.036253 -0.999330 0.005079
vn 0.036253 -0.999330 0.005079
vn 0.021824 -0.567558 -0.823044
vn 0.021824 -0.567558 -0.823044
vn 0.021824 -0.567558 -0.823044
vn 0.036253 -0.999330 0.005080
vn 0.036253 -0.999330 0.005079
vn 0.036253 -0.999330 0.005079
vn 0.021824 -0.567558 -0.823044
vn 0.021824 -0.567558 -0.823044
vn 0.021824 -0.567557 -0.823045
vn 0.036253 -0.999330 0.005091
vn 0.036253 -0.999330 0.005080
vn 0.036253 -0.999330 0.005080
vn 0.021824 -0.567558 -0.823044
vn 0.021824 -0.567557 -0.823045
vn 0.021824 -0.567557 -0.823045
vn 0.036253 -0.999330 0.005100
vn 0.036253 -0.999330 0.005091
vn 0.036253 -0.999330 0.005091
vn 0.021824 -0.567557 -0.823045
vn 0.021824 -0.567557 -0.823045
vn 0.002109 -0.016907 -0.999855
vn 0.021824 -0.567558 -0.823044
vn 0.021824 -0.567558 -0.823044
vn 0.021824 -0.567558 -0.823044
vn 0.002109 -0.016907 -0.999855
vn 0.002109 -0.016907 -0.999855
vn 0.002109 -0.016907 -0.999855
vn 0.021824 -0.567558 -0.823044
vn 0.021824 -0.567558 -0.823044
vn 0.021824 -0.567558 -0.823044
vn 0.002109 -0.016907 -0.999855
vn 0.002109 -0.016907 -0.999855
vn 0.002109 -0.016907 -0.999855
vn 0.021824 -0.567557 -0.823045
vn 0.021824 -0.567558 -0.823044
vn 0.021824 -0.567558 -0.823044
vn 0.002109 -0.016907 -0.999855
vn 0.002109 -0.016907 -0.999855
vn 0.002109 -0.016907 -0.999855
vn 0.021824 -0.567557 -0.823045
vn 0.021824 -0.567557 -0.823045
vn 0.021824 -0.567557 -0.823045
vn 0.002109 -0.016907 -0.999855
vn 0.002109 -0.016907 -0.999855
vn -0.036234 0.999227 -0.015271
vn -0.036234 0.999227 -0.015271
vn -0.036234 0.999227 -0.015271
vn -0.036234 0.999227 -0.015271
vn -0.036234 0.999227 -0.015273
vn -0.036234 0.999227 -0.015271
vn -0.999341 -0.036261 -0.001494
vn -0.999341 -0.036261 -0.001494
vn -0.999341 -0.036261 -0.001494
vn -0.999341 -0.036261 -0.001494
vn -0.999341 -0.036261 -0.001494
vn -0.999341 -0.036261 -0.001494
vn 0.186017 0.982407 -0.016567
vn -0.036234 0.999227 -0.015271
vn -0.036234 0.999227 -0.015273
vn -0.036234 0.999227 -0.015273
vn 0.185619 0.982482 -0.016572
vn 0.186017 0.982407 -0.016567
vn 0.185976 0.982366 -0.019234
vn 0.186017 0.982407 -0.016567
vn 0.185619 0.982482 -0.016572
vn 0.185619 0.982482 -0.016572
vn 0.185629 0.982432 -0.019236
vn 0.185976 0.982366 -0.019234
vn -0.036228 0.999178 -0.018207
vn 0.185976 0.982366 -0.019234
vn 0.185629 0.982432 -0.019236
vn 0.185629 0.982432 -0.019236
vn -0.036228 0.999178 -0.018207
vn -0.036228 0.999178 -0.018207
vn 0.999341 0.036261 0.001494
vn 0.999341 0.036261 0.001494
vn 0.999341 0.036261 0.001494
vn 0.999341 0.036261 0.001494
vn 0.999341 0.036261 0.001494
vn 0.999341 0.036261 0.001494
vn -0.999341 -0.036261 -0.001494
vn -0.999341 -0.036261 -0.001494
vn -0.999341 -0.036261 -0.001494
vn -0.999341 -0.036261 -0.001494
vn -0.999341 -0.036261 -0.001494
vn -0.999341 -0.036261 -0.001494
vn 0.999341 0.036261 0.001494
vn 0.999341 0.036261 0.001494
vn 0.999341 0.036261 0.001494
vn 0.999341 0.036261 0.001494
vn 0.999341 0.036261 0.001494
vn 0.999341 0.036261 0.001494
vn -0.999341 -0.036261 -0.001494
vn -0.999341 -0.036261 -0.001494
vn -0.999341 -0.036261 -0.001494
vn -0.999341 -0.036261 -0.001494
vn -0.999341 -0.036261 -0.001494
vn -0.999341 -0.036261 -0.001494
vn 0.999341 0.036261 0.001494
vn 0.999341 0.036261 0.001494
vn 0.999341 0.036261 0.001494
vn 0.999341 0.036261 0.001494
vn 0.999341 0.036261 0.001494
vn 0.999341 0.036261 0.001494
vn -0.036231 0.999202 -0.016816
vn -0.036231 0.999202 -0.016816
vn -0.036231 0.999202 -0.016816
vn -0.036231 0.999202 -0.016816
vn -0.036231 0.999202 -0.016816
vn -0.036231 0.999202 -0.016816
vn -0.999341 -0.036261 -0.001494
vn -0.999341 -0.036261 -0.001494
vn -0.999341 -0.036261 -0.001494
vn -0.999341 -0.036261 -0.001494
vn -0.999341 -0.036261 -0.001494
vn -0.999341 -0.036261 -0.001494
vn -0.036231 0.999202 -0.016816
vn -0.036231 0.999202 -0.016816
vn -0.036231 0.999202 -0.016816
vn -0.036231 0.999202 -0.016816
vn -0.036231 0.999202 -0.016816
vn -0.036231 0.999202 -0.016816
vn -0.036231 0.999202 -0.016816
vn -0.036231 0.999202 -0.016816
vn -0.036231 0.999202 -0.016816
vn -0.036231 0.999202 -0.016816
vn -0.036231 0.999202 -0.016816
vn -0.036231 0.999202 -0.016816
vn 0.999341 0.036261 0.001494
vn 0.999341 0.036261 0.001494
vn 0.999341 0.036261 0.001494
vn 0.999341 0.036261 0.001494
vn 0.999341 0.036261 0.001494
vn 0.999341 0.036261 0.001494
vn -0.036231 0.999202 -0.016816
vn -0.036231 0.999202 -0.016816
vn -0.036231 0.999202 -0.016816
vn -0.036231 0.999202 -0.016816
vn -0.036231 0.999202 -0.016816
vn -0.036231 0.999202 -0.016816
s off
g Plane071 FOLDER1 ORGANIZER
usemtl initialShadingGroup
f 1/1/1 2/2/2 7/7/3
f 7/7/4 6/6/5 1/1/6
f 2/2/7 3/3/8 8/8/9
f 8/8/10 7/7/11 2/2/12
f 3/3/13 4/4/14 9/9/15
f 9/9/16 8/8/17 3/3/18
f 4/4/19 5/5/20 10/10/21
f 10/10/22 9/9/23 4/4/24
f 6/6/25 7/7/26 12/12/27
f 12/12/28 11/11/29 6/6/30
f 7/7/31 8/8/32 13/13/33
f 13/13/34 12/12/35 7/7/36
f 8/8/37 9/9/38 14/14/39
f 14/14/40 13/13/41 8/8/42
f 9/9/43 10/10/44 15/15/45
f 15/15/46 14/14/47 9/9/48
f 11/11/49 12/12/50 17/17/51
f 17/17/52 16/16/53 11/11/54
f 12/12/55 13/13/56 18/18/57
f 18/18/58 17/17/59 12/12/60
f 13/13/61 14/14/62 19/19/63
f 19/19/64 18/18/65 13/13/66
f 14/14/67 15/15/68 20/20/69
f 20/20/70 19/19/71 14/14/72
f 16/16/73 17/17/74 22/22/75
f 22/22/76 21/21/77 16/16/78
f 17/17/79 18/18/80 23/23/81
f 23/23/82 22/22/83 17/17/84
f 18/18/85 19/19/86 24/24/87
f 24/24/88 23/23/89 18/18/90
f 19/19/91 20/20/92 25/25/93
f 25/25/94 24/24/95 19/19/96
f 32/26/97 27/27/98 26/28/99
f 26/29/100 31/30/101 32/31/102
f 33/32/103 28/33/104 27/34/105
f 27/35/106 32/36/107 33/37/108
f 34/38/109 29/39/110 28/40/111
f 28/41/112 33/42/113 34/43/114
f 35/44/115 30/45/116 29/46/117
f 29/47/118 34/48/119 35/49/120
f 37/50/121 32/51/122 31/52/123
f 31/53/124 36/54/125 37/55/126
f 38/56/127 33/57/128 32/58/129
f 32/59/130 37/60/131 38/61/132
f 39/62/133 34/63/134 33/64/135
f 33/65/136 38/66/137 39/67/138
f 40/68/139 35/69/140 34/70/141
f 34/71/142 39/72/143 40/73/144
f 42/74/145 37/75/146 36/76/147
f 36/77/148 41/78/149 42/79/150
f 43/80/151 38/81/152 37/82/153
f 37/83/154 42/84/155 43/85/156
f 44/86/157 39/87/158 38/88/159
f 38/89/160 43/90/161 44/91/162
f 45/92/163 40/93/164 39/94/165
f 39/95/166 44/96/167 45/97/168
f 47/98/169 42/99/170 41/100/171
f 41/101/172 46/102/173 47/103/174
f 48/104/175 43/105/176 42/106/177
f 42/107/178 47/108/179 48/109/180
f 49/110/181 44/111/182 43/112/183
f 43/113/184 48/114/185 49/115/186
f 50/116/187 45/117/188 44/118/189
f 44/119/190 49/120/191 50/121/192
f 2/2/193 1/1/194 26/122/195
f 26/123/196 27/124/197 2/2/198
f 1/1/199 6/6/200 31/125/201
f 31/126/202 26/127/203 1/1/204
f 3/3/205 2/2/206 27/128/207
f 27/129/208 28/130/209 3/3/210
f 4/4/211 3/3/212 28/131/213
f 28/132/214 29/133/215 4/4/216
f 5/5/217 4/4/218 29/134/219
f 29/135/220 30/136/221 5/5/222
f 10/10/223 5/5/224 30/137/225
f 30/138/226 35/139/227 10/10/228
f 6/6/229 11/11/230 36/140/231
f 36/141/232 31/142/233 6/6/234
f 15/15/235 10/10/236 35/143/237
f 35/144/238 40/145/239 15/15/240
f 11/11/241 16/16/242 41/146/243
f 41/147/244 36/148/245 11/11/246
f 20/20/247 15/15/248 40/149/249
f 40/150/250 45/151/251 20/20/252
f 21/21/253 22/22/254 47/152/255
f 47/153/256 46/154/257 21/21/258
f 16/16/259 21/21/260 46/155/261
f 46/156/262 41/157/263 16/16/264
f 22/22/265 23/23/266 48/158/267
f 48/159/268 47/160/269 22/22/270
f 23/23/271 24/24/272 49/161/273
f 49/162/274 48/163/275 23/23/276
f 25/25/277 20/20/278 45/164/279
f 45/165/280 50/166/281 25/25/282
f 24/24/283 25/25/284 50/167/285
f 50/168/286 49/169/287 24/24/288
g default
v -2.742140 -1.951049 -0.002783
v -1.470404 -1.904905 -0.000882
v -0.198668 -1.858760 0.001020
v 1.073068 -1.812616 0.002921
v 2.344804 -1.766471 0.004823
v -2.777790 -0.968355 -0.007622
v -1.506054 -0.922210 -0.005720
v -0.234318 -0.876066 -0.003819
v 1.037418 -0.829921 -0.001917
v 2.309154 -0.783777 -0.000015
v -2.813439 0.014340 -0.012460
v -1.541703 0.060484 -0.010559
v -0.269967 0.106629 -0.008657
v 1.001769 0.152773 -0.006756
v 2.273505 0.198918 -0.004854
v -2.849089 0.997035 -0.017299
v -1.577353 1.043179 -0.015397
v -0.305617 1.089323 -0.013496
v 0.966119 1.135468 -0.011594
v 2.237855 1.181612 -0.009693
v -2.884738 1.979729 -0.022137
v -1.613002 2.025874 -0.020236
v -0.341266 2.072018 -0.018334
v 0.930470 2.118162 -0.016433
v 2.202206 2.164307 -0.014531
vt 0.000000 0.000000
vt 2.750000 0.000000
vt 5.500000 0.000000
vt 8.250000 0.000000
vt 11.000000 0.000000
vt 0.000000 2.125000
vt 2.750000 2.125000
vt 5.500000 2.125000
vt 8.250000 2.125000
vt 11.000000 2.125000
vt 0.000000 4.250000
vt 2.750000 4.250000
vt 5.500000 4.250000
vt 8.250000 4.250000
vt 11.000000 4.250000
vt 0.000000 6.375000
vt 2.750000 6.375000
vt 5.500000 6.375000
vt 8.250000 6.375000
vt 11.000000 6.375000
vt 0.000000 8.500000
vt 2.750000 8.500000
vt 5.500000 8.500000
vt 8.250000 8.500000
vt 11.000000 8.500000
vn -0.001672 0.004863 0.999987
vn -0.001672 0.004863 0.999987
vn -0.001672 0.004863 0.999987
vn -0.001672 0.004863 0.999987
vn -0.001672 0.004863 0.999987
vn -0.001672 0.004863 0.999987
vn -0.001672 0.004863 0.999987
vn -0.001672 0.004863 0.999987
vn -0.001672 0.004863 0.999987
vn -0.001672 0.004863 0.999987
vn -0.001672 0.004863 0.999987
vn -0.001672 0.004863 0.999987
vn -0.001672 0.004863 0.999987
vn -0.001672 0.004863 0.999987
vn -0.001672 0.004863 0.999987
vn -0.001672 0.004863 0.999987
vn -0.001672 0.004863 0.999987
vn -0.001672 0.004863 0.999987
vn -0.001672 0.004863 0.999987
vn -0.001672 0.004863 0.999987
vn -0.001672 0.004863 0.999987
vn -0.001672 0.004863 0.999987
vn -0.001672 0.004863 0.999987
vn -0.001672 0.004863 0.999987
vn -0.001672 0.004863 0.999987
vn -0.001672 0.004863 0.999987
vn -0.001672 0.004863 0.999987
vn -0.001672 0.004863 0.999987
vn -0.001672 0.004863 0.999987
vn -0.001672 0.004863 0.999987
vn -0.001672 0.004863 0.999987
vn -0.001672 0.004863 0.999987
vn -0.001672 0.004863 0.999987
vn -0.001672 0.004863 0.999987
vn -0.001672 0.004863 0.999987
vn -0.001672 0.004863 0.999987
vn -0.001672 0.004863 0.999987
vn -0.001672 0.004863 0.999987
vn -0.001672 0.004863 0.999987
vn -0.001672 0.004863 0.999987
vn -0.001672 0.004863 0.999987
vn -0.001672 0.004863 0.999987
vn -0.001672 0.004863 0.999987
vn -0.001672 0.004863 0.999987
vn -0.001672 0.004863 0.999987
vn -0.001672 0.004863 0.999987
vn -0.001672 0.004863 0.999987
vn -0.001672 0.004863 0.999987
vn -0.001672 0.004863 0.999987
vn -0.001672 0.004863 0.999987
vn -0.001672 0.004863 0.999987
vn -0.001672 0.004863 0.999987
vn -0.001672 0.004863 0.999987
vn -0.001672 0.004863 0.999987
vn -0.001672 0.004863 0.999987
vn -0.001672 0.004863 0.999987
vn -0.001672 0.004863 0.999987
vn -0.001672 0.004863 0.999987
vn -0.001672 0.004863 0.999987
vn -0.001672 0.004863 0.999987
vn -0.001672 0.004863 0.999987
vn -0.001672 0.004863 0.999987
vn -0.001672 0.004863 0.999987
vn -0.001672 0.004863 0.999987
s off
g FOLDER1 ORGANIZER Plane073
usemtl initialShadingGroup
f 51/170/289 52/171/290 57/176/291 56/175/292
f 52/171/293 53/172/294 58/177/295 57/176/296
f 53/172/297 54/173/298 59/178/299 58/177/300
f 54/173/301 55/174/302 60/179/303 59/178/304
f 56/175/305 57/176/306 62/181/307 61/180/308
f 57/176/309 58/177/310 63/182/311 62/181/312
f 58/177/313 59/178/314 64/183/315 63/182/316
f 59/178/317 60/179/318 65/184/319 64/183/320
f 61/180/321 62/181/322 67/186/323 66/185/324
f 62/181/325 63/182/326 68/187/327 67/186/328
f 63/182/329 64/183/330 69/188/331 68/187/332
f 64/183/333 65/184/334 70/189/335 69/188/336
f 66/185/337 67/186/338 72/191/339 71/190/340
f 67/186/341 68/187/342 73/192/343 72/191/344
f 68/187/345 69/188/346 74/193/347 73/192/348
f 69/188/349 70/189/350 75/194/351 74/193/352
