# This file uses centimeters as units for non-parametric coordinates.

mtllib box.mtl
g default
v -1.013482 1.206060 2.480076
v 1.653121 1.166514 2.480076
v -1.640806 1.857502 2.480076
v 1.653121 1.857502 2.480076
v -0.945727 1.171278 2.480076
v -1.611167 1.857502 2.480076
v -1.585699 1.857502 2.480076
v -0.907157 1.166514 2.480076
v -0.975317 1.184381 2.480076
v -1.625986 1.857502 2.480076
v -1.013482 1.206060 2.501171
v 1.653121 1.166514 2.501171
v -1.640806 1.857502 2.501171
v 1.653121 1.857502 2.501171
v -0.945727 1.171278 2.501171
v -1.611167 1.857502 2.501171
v -1.585699 1.857502 2.501171
v -0.907157 1.166514 2.501171
v -0.975317 1.184381 2.501171
v -1.625986 1.857502 2.501171
v 1.623557 1.166514 2.480076
v 1.623557 1.857502 2.480076
v 1.623557 1.166514 2.501171
v 1.623557 1.857502 2.501171
v -1.013483 1.206059 -2.446098
v 1.653121 1.166513 -2.446098
v -1.640806 1.857502 -2.446098
v 1.653121 1.857502 -2.446098
v -0.945727 1.171277 -2.446098
v -1.611167 1.857502 -2.446098
v -1.585700 1.857502 -2.446098
v -0.907158 1.166513 -2.446098
v -0.975317 1.184380 -2.446098
v -1.625987 1.857502 -2.446098
v -1.013483 1.206059 -2.467193
v 1.653121 1.166513 -2.467193
v -1.640806 1.857502 -2.467193
v 1.653121 1.857502 -2.467193
v -0.945727 1.171277 -2.467193
v -1.611167 1.857502 -2.467193
v -1.585700 1.857502 -2.467193
v -0.907158 1.166513 -2.467193
v -0.975317 1.184380 -2.467193
v -1.625987 1.857502 -2.467193
v 1.623557 1.166513 -2.446098
v 1.623557 1.857502 -2.446098
v 1.623557 1.166513 -2.467193
v 1.623557 1.857502 -2.467193
v 1.585055 -1.691538 2.475952
v -1.639164 -1.691538 2.475951
v -1.639163 -1.691540 -2.444910
v 1.585056 -1.691540 -2.444909
v 1.585055 1.856099 2.475951
v -1.639164 1.856099 2.475950
v -1.639163 1.856098 -2.444911
v 1.585056 1.856098 -2.444910
v -1.013482 1.206060 2.480076
v -1.640806 1.857502 2.480076
v -1.640806 1.857502 2.480076
v -1.640806 1.857502 2.480076
v -0.975317 1.184381 2.480076
v -1.625986 1.857502 2.480076
v -1.625986 1.857502 2.480076
v -1.611167 1.857502 2.480076
v -1.611167 1.857502 2.480076
v -1.611167 1.857502 2.480076
v -0.945727 1.171278 2.480076
v -0.945727 1.171278 2.480076
v -1.585699 1.857502 2.480076
v -1.585699 1.857502 2.480076
v -0.907157 1.166514 2.480076
v 1.623557 1.166514 2.501171
v 1.653121 1.166514 2.501171
v 1.653121 1.166514 2.501171
v 1.623557 1.857502 2.501171
v 1.623557 1.857502 2.501171
v 1.653121 1.857502 2.501171
v 1.653121 1.857502 2.501171
v 1.653121 1.857502 2.501171
v -1.013482 1.206060 2.501171
v -1.640806 1.857502 2.501171
v -1.640806 1.857502 2.501171
v -0.975317 1.184381 2.501171
v -1.625986 1.857502 2.501171
v -1.585699 1.857502 2.501171
v -1.611167 1.857502 2.501171
v -0.907157 1.166514 2.501171
v -0.945727 1.171278 2.501171
v 1.653121 1.166514 2.480076
v 1.653121 1.857502 2.480076
v 1.623557 1.166514 2.480076
v 1.623557 1.857502 2.480076
v 1.623557 1.857502 -2.446098
v 1.623557 1.857502 -2.446098
v 1.653121 1.857502 -2.446098
v 1.653121 1.857502 -2.446098
v 1.653121 1.857502 -2.446098
v 1.653121 1.857502 -2.446098
v 1.653121 1.166513 -2.446098
v 1.653121 1.166513 -2.446098
v -1.013483 1.206059 -2.446098
v -1.640806 1.857502 -2.446098
v -1.640806 1.857502 -2.446098
v -1.640806 1.857502 -2.446098
v -0.975317 1.184380 -2.446098
v -1.625987 1.857502 -2.446098
v -1.625987 1.857502 -2.446098
v -1.585700 1.857502 -2.446098
v -1.585700 1.857502 -2.446098
v -1.611167 1.857502 -2.446098
v -1.611167 1.857502 -2.446098
v -0.907158 1.166513 -2.446098
v -0.945727 1.171277 -2.446098
v 1.623557 1.166513 -2.467193
v 1.653121 1.166513 -2.467193
v 1.653121 1.166513 -2.467193
v 1.623557 1.857502 -2.467193
v 1.653121 1.857502 -2.467193
v 1.653121 1.857502 -2.467193
v -1.013483 1.206059 -2.467193
v -1.640806 1.857502 -2.467193
v -1.640806 1.857502 -2.467193
v -0.975317 1.184380 -2.467193
v -1.625987 1.857502 -2.467193
v -1.585700 1.857502 -2.467193
v -1.611167 1.857502 -2.467193
v -0.907158 1.166513 -2.467193
v -0.945727 1.171277 -2.467193
v 1.585055 1.856099 2.475951
v 1.585055 1.856099 2.475951
v -1.639164 1.856099 2.475950
v -1.639164 1.856099 2.475950
v -1.639164 -1.691538 2.475951
v -1.639164 -1.691538 2.475951
v 1.585055 -1.691538 2.475952
v 1.585055 -1.691538 2.475952
v -1.639163 1.856098 -2.444911
v -1.639163 1.856098 -2.444911
v -1.639163 -1.691540 -2.444910
v -1.639163 -1.691540 -2.444910
v 1.585056 1.856098 -2.444910
v 1.585056 1.856098 -2.444910
v 1.585056 -1.691540 -2.444909
v 1.585056 -1.691540 -2.444909
vt 0.000000 0.000000
vt 0.000000 0.000000
vt 0.000000 0.000000
vt 0.000000 0.000000
vt 0.000000 0.000000
vt 0.000000 0.000000
vt 0.000000 0.000000
vt 0.000000 0.000000
vt 0.000000 0.000000
vt 0.000000 0.000000
vt 0.000000 0.000000
vt 0.000000 0.000000
vt 0.012580 0.689149
vt 0.012580 0.763248
vt 0.009409 0.763248
vt 0.009409 0.689148
vt 0.361050 0.689148
vt 0.291274 0.761331
vt 0.288101 0.762736
vt 0.359460 0.689148
vt 0.359460 0.689148
vt 0.288101 0.762736
vt 0.283965 0.763247
vt 0.356729 0.689148
vt 0.362639 0.689148
vt 0.295367 0.759007
vt 0.291274 0.761331
vt 0.361050 0.689148
vt 0.530300 0.566799
vt 0.528973 0.566831
vt 0.527637 0.509961
vt 0.528963 0.509930
vt 0.529039 0.569590
vt 0.530365 0.569558
vt 0.530414 0.571592
vt 0.529089 0.571624
vt 0.530365 0.569558
vt 0.529039 0.569590
vt 0.528973 0.566831
vt 0.530300 0.566799
vt 0.002596 0.630258
vt 0.000680 0.630255
vt 0.000681 0.628908
vt 0.002597 0.628908
vt 0.000680 0.630255
vt 0.002596 0.630258
vt 0.002596 0.631603
vt 0.000679 0.631602
vt 0.533005 0.733025
vt 0.534327 0.733003
vt 0.534334 0.734854
vt 0.533021 0.734866
vt 0.000683 0.626597
vt 0.002596 0.626597
vt 0.002597 0.628908
vt 0.000681 0.628908
vt 0.002629 0.335562
vt 0.000716 0.335561
vt 0.000717 0.332880
vt 0.002630 0.332881
vt 0.530473 0.574034
vt 0.529148 0.574066
vt 0.529089 0.571624
vt 0.530414 0.571592
vt 0.474183 0.655170
vt 0.472367 0.655170
vt 0.472367 0.595674
vt 0.474183 0.595673
vt 0.000000 0.000000
vt 0.000000 0.000000
vt 0.000000 0.000000
vt 0.000000 0.000000
vt 0.356729 0.689148
vt 0.283965 0.763247
vt 0.012580 0.763248
vt 0.012580 0.689149
vt 0.529148 0.574066
vt 0.530473 0.574034
vt 0.534327 0.733003
vt 0.533005 0.733025
vt 0.002596 0.626597
vt 0.000683 0.626597
vt 0.000716 0.335561
vt 0.002629 0.335562
vt 0.000000 0.000000
vt 0.000000 0.000000
vt 0.000000 0.000000
vt 0.000000 0.000000
vt 0.000000 0.000000
vt 0.000000 0.000000
vt 0.000000 0.000000
vt 0.000000 0.000000
vt 0.000000 0.000000
vt 0.000000 0.000000
vt 0.000000 0.000000
vt 0.000000 0.000000
vt 0.011996 0.765830
vt 0.008259 0.765762
vt 0.009838 0.678417
vt 0.013575 0.678485
vt 0.422758 0.770201
vt 0.420885 0.770167
vt 0.338336 0.684956
vt 0.342047 0.686680
vt 0.420885 0.770167
vt 0.417666 0.770109
vt 0.333472 0.684265
vt 0.338336 0.684956
vt 0.424631 0.770234
vt 0.422758 0.770201
vt 0.342047 0.686680
vt 0.346818 0.689505
vt 0.842926 0.567971
vt 0.843936 0.511362
vt 0.845256 0.511385
vt 0.844246 0.567992
vt 0.844207 0.570734
vt 0.844188 0.572753
vt 0.842870 0.572744
vt 0.842889 0.570719
vt 0.842889 0.570719
vt 0.842926 0.567971
vt 0.844246 0.567992
vt 0.844207 0.570734
vt 0.449332 0.630312
vt 0.449332 0.628961
vt 0.451250 0.628961
vt 0.451253 0.630310
vt 0.451253 0.630310
vt 0.451255 0.631661
vt 0.449332 0.631664
vt 0.449332 0.630312
vt 0.844037 0.733017
vt 0.844038 0.734865
vt 0.842719 0.734866
vt 0.842720 0.733016
vt 0.451247 0.626647
vt 0.451250 0.628961
vt 0.449332 0.628961
vt 0.449333 0.626648
vt 0.449366 0.335612
vt 0.449366 0.332931
vt 0.451279 0.332932
vt 0.451278 0.335612
vt 0.842858 0.575173
vt 0.842870 0.572744
vt 0.844188 0.572753
vt 0.844174 0.575177
vt 0.898346 0.655170
vt 0.898346 0.595674
vt 0.900162 0.595674
vt 0.900162 0.655170
vt 0.000000 0.000000
vt 0.000000 0.000000
vt 0.000000 0.000000
vt 0.000000 0.000000
vt 0.417666 0.770109
vt 0.011996 0.765830
vt 0.013575 0.678485
vt 0.333472 0.684265
vt 0.844174 0.575177
vt 0.844037 0.733017
vt 0.842720 0.733016
vt 0.842858 0.575173
vt 0.449333 0.626648
vt 0.449366 0.335612
vt 0.451278 0.335612
vt 0.451247 0.626647
vt 0.002597 0.628908
vt 0.002596 0.626597
vt 0.449333 0.626648
vt 0.449332 0.628961
vt 0.002597 0.628908
vt 0.449332 0.628961
vt 0.449332 0.630312
vt 0.002596 0.630258
vt 0.002596 0.631603
vt 0.002596 0.630258
vt 0.449332 0.630312
vt 0.449332 0.631664
vt 0.002596 0.626597
vt 0.002629 0.335562
vt 0.449366 0.335612
vt 0.449333 0.626648
vt 0.894962 0.476714
vt 0.455034 0.476714
vt 0.455034 0.008302
vt 0.894962 0.008302
vt 0.462512 0.491040
vt 0.910345 0.491040
vt 0.918275 0.837955
vt 0.462211 0.837955
vt 0.897209 0.478736
vt 0.459857 0.478736
vt 0.459857 0.005822
vt 0.897209 0.005822
vt 0.912472 0.839913
vt 0.463335 0.839913
vt 0.463335 0.492271
vt 0.912472 0.492271
vt 0.002457 0.326143
vt 0.002457 -0.000004
vt 0.446694 -0.000004
vt 0.446695 0.326143
vt 0.502127 0.225091
vt 0.704918 0.225091
vt 0.704918 0.534595
vt 0.502127 0.534595
vt 0.449366 0.335612
vt 0.002629 0.335562
vt 0.002630 0.332881
vt 0.449366 0.332931
vt 0.898346 0.655170
vt 0.474183 0.655170
vt 0.474183 0.595673
vt 0.898346 0.595674
vt 0.000000 0.000000
vt 0.000000 0.000000
vt 0.000000 0.000000
vt 0.000000 0.000000
vt 0.000000 0.000000
vt 0.000000 0.000000
vt 0.000000 0.000000
vt 0.000000 0.000000
vt 0.534334 0.734854
vt 0.534327 0.733003
vt 0.842720 0.733016
vt 0.842719 0.734866
vn 0.000000 0.000000 1.000000
vn 0.000000 0.000000 1.000000
vn 0.000000 0.000000 1.000000
vn 0.000000 0.000000 1.000000
vn 0.000000 -0.000000 -1.000000
vn 0.000000 -0.000000 -1.000000
vn 0.000000 -0.000000 -1.000000
vn 0.000000 -0.000000 -1.000000
vn 0.000000 0.000000 1.000000
vn 0.000000 0.000000 1.000000
vn 0.000000 0.000000 1.000000
vn 0.000000 0.000000 1.000000
vn 0.000000 0.000000 1.000000
vn 0.000000 0.000000 1.000000
vn 0.000000 0.000000 1.000000
vn 0.000000 0.000000 1.000000
vn 0.000000 0.000000 1.000000
vn 0.000000 0.000000 1.000000
vn 0.000000 0.000000 1.000000
vn 0.000000 0.000000 1.000000
vn 0.000000 0.000000 1.000000
vn 0.000000 0.000000 1.000000
vn -0.613436 -0.789745 0.000000
vn -0.613436 -0.789745 0.000000
vn -0.720318 -0.693644 0.000000
vn -0.720318 -0.693644 0.000000
vn -0.449946 -0.893056 0.000000
vn -0.449946 -0.893056 0.000000
vn -0.266617 -0.963803 0.000000
vn -0.266617 -0.963803 0.000000
vn 0.000000 1.000000 -0.000000
vn 0.000000 1.000000 -0.000000
vn 0.000000 1.000000 -0.000000
vn 0.000000 1.000000 -0.000000
vn 0.000000 1.000000 -0.000000
vn 0.000000 1.000000 -0.000000
vn 0.000000 -1.000000 0.000000
vn 0.000000 -0.947748 -0.319019
vn 0.000000 -0.891732 -0.452564
vn 0.000000 -1.000000 0.000000
vn 0.000000 1.000000 -0.000000
vn 0.000000 1.000000 -0.000000
vn 0.000000 1.000000 -0.000000
vn 0.000000 1.000000 -0.000000
vn 0.000000 1.000000 -0.000000
vn 0.000000 1.000000 -0.000000
vn -0.061404 -0.998113 0.000000
vn -0.061404 -0.998113 0.000000
vn 1.000000 0.000000 0.000000
vn 1.000000 0.000000 0.000000
vn 1.000000 0.000000 0.000000
vn 1.000000 0.000000 0.000000
vn 0.000000 -0.000000 -1.000000
vn 0.000000 -0.000000 -1.000000
vn 0.000000 0.000000 1.000000
vn 0.000000 0.000000 1.000000
vn 0.000000 0.000000 1.000000
vn 0.000000 0.000000 1.000000
vn 0.000000 0.000000 1.000000
vn 0.000000 0.000000 1.000000
vn 0.000000 0.000000 1.000000
vn 0.000000 0.000000 1.000000
vn 0.000000 -0.000000 -1.000000
vn 0.000000 -0.000000 -1.000000
vn 0.000000 -0.000000 -1.000000
vn 0.000000 -0.000000 -1.000000
vn 0.000000 -0.000000 -1.000000
vn 0.000000 -0.000000 -1.000000
vn 0.000000 -0.000000 -1.000000
vn 0.000000 -0.000000 -1.000000
vn 0.000000 -0.000000 -1.000000
vn 0.000000 -0.000000 -1.000000
vn 0.000000 -0.000000 -1.000000
vn 0.000000 -0.000000 -1.000000
vn -0.613436 -0.789745 0.000000
vn -0.720318 -0.693644 0.000000
vn -0.720318 -0.693644 0.000000
vn -0.613436 -0.789745 0.000000
vn -0.449946 -0.893056 0.000000
vn -0.266617 -0.963803 0.000000
vn -0.266617 -0.963803 0.000000
vn -0.449946 -0.893056 0.000000
vn 0.000000 1.000000 -0.000000
vn 0.000000 1.000000 -0.000000
vn 0.000000 1.000000 -0.000000
vn 0.000000 1.000000 -0.000000
vn 0.000000 1.000000 -0.000000
vn 0.000000 1.000000 -0.000000
vn 0.000000 -1.000000 0.000000
vn 0.000000 -1.000000 0.000000
vn 0.000000 -0.894433 0.447202
vn 0.000000 -0.832055 0.554693
vn 0.000000 1.000000 -0.000000
vn 0.000000 1.000000 -0.000000
vn 0.000000 1.000000 -0.000000
vn 0.000000 1.000000 -0.000000
vn 0.000000 1.000000 -0.000000
vn 0.000000 1.000000 -0.000000
vn -0.061404 -0.998113 0.000000
vn -0.061404 -0.998113 0.000000
vn 1.000000 0.000000 0.000000
vn 1.000000 0.000000 0.000000
vn 1.000000 0.000000 0.000000
vn 1.000000 0.000000 0.000000
vn 0.000000 -0.832055 0.554693
vn 0.000000 0.000000 1.000000
vn 0.000000 1.000000 -0.000000
vn 0.000000 1.000000 -0.000000
vn 0.000000 1.000000 -0.000000
vn 0.000000 1.000000 -0.000000
vn 0.000000 1.000000 -0.000000
vn 0.000000 1.000000 -0.000000
vn 0.000000 1.000000 -0.000000
vn 0.000000 1.000000 -0.000000
vn 0.000000 1.000000 -0.000000
vn 0.000000 0.000000 1.000000
vn 0.000000 0.000000 1.000000
vn 0.000000 0.000000 1.000000
vn 0.000000 0.000000 1.000000
vn -1.000000 0.000000 -0.000000
vn -1.000000 0.000000 -0.000000
vn -1.000000 0.000000 -0.000000
vn -1.000000 0.000000 -0.000000
vn 0.000000 -0.000000 -1.000000
vn 0.000000 -0.000000 -1.000000
vn 0.000000 -0.000000 -1.000000
vn 0.000000 -0.000000 -1.000000
vn 1.000000 0.000000 0.000000
vn 1.000000 0.000000 0.000000
vn 1.000000 0.000000 0.000000
vn 1.000000 0.000000 0.000000
vn 0.000000 -1.000000 0.000000
vn 0.000000 -1.000000 0.000000
vn 0.000000 -1.000000 0.000000
vn 0.000000 -1.000000 0.000000
vn 0.000000 1.000000 -0.000000
vn 0.000000 1.000000 -0.000000
vn 0.000000 1.000000 -0.000000
vn 0.000000 1.000000 -0.000000
vn 0.000000 1.000000 -0.000000
vn 1.000000 0.000000 0.000000
vn 1.000000 0.000000 0.000000
vn 0.000000 -0.894433 0.447202
vn 0.000000 0.000000 1.000000
vn 0.000000 -0.947748 -0.319019
vn 0.000000 0.030488 -0.999535
vn 0.000000 0.030488 -0.999535
vn 0.000000 -0.891732 -0.452564
vn 0.000000 -0.891732 -0.452564
vn 0.000000 -0.947748 -0.319019
vn 0.000000 -0.832055 0.554693
vn 0.000000 -0.894433 0.447202
s 1
g Box
usemtl BoxSG
f 62/1/1 9/2/2 5/3/3 6/4/4
s 2
f 66/5/5 69/6/6 8/7/7 67/8/8
s 1
f 3/9/9 1/10/10 9/11/2 62/12/1
s 3
f 75/13/11 23/14/12 12/15/13 77/16/14
f 20/17/15 19/18/16 15/19/17 16/20/18
f 16/21/18 15/22/17 18/23/19 17/24/20
f 13/25/21 11/26/22 19/27/16 20/28/15
s 5
f 57/29/23 80/30/24 81/31/25 59/32/26
f 83/33/27 61/34/28 68/35/29 88/36/30
f 61/37/28 83/38/27 80/39/24 57/40/23
s 6
f 10/41/31 84/42/32 86/43/33 64/44/34
f 84/45/32 10/46/31 58/47/35 82/48/36
s 5
f 72/49/37 21/50/38 2/51/39 73/52/40
s 6
f 85/53/41 7/54/42 64/55/34 86/56/33
f 22/57/43 24/58/44 14/59/45 4/60/46
s 5
f 71/61/47 87/62/48 88/63/30 68/64/29
s 8
f 90/65/49 79/66/50 74/67/51 89/68/52
s 2
f 69/69/6 92/70/53 91/71/54 8/72/7
s 3
f 17/73/20 18/74/19 23/75/12 75/76/11
s 5
f 87/77/48 71/78/47 21/79/38 72/80/37
s 6
f 7/81/42 85/82/41 24/83/44 22/84/43
s 9
f 106/85/55 33/86/56 29/87/57 30/88/58
f 30/89/58 29/90/57 32/91/59 108/92/60
f 27/93/61 25/94/62 33/95/56 106/96/55
s 10
f 48/97/63 38/98/64 36/99/65 47/100/66
f 44/101/67 40/102/68 39/103/69 43/104/70
f 40/105/68 41/106/71 42/107/72 39/108/69
f 37/109/73 44/110/67 43/111/70 35/112/74
s 12
f 101/113/75 103/114/76 121/115/77 120/116/78
f 123/117/79 128/118/80 113/119/81 105/120/82
f 105/121/82 101/122/75 120/123/78 123/124/79
s 14
f 34/125/83 110/126/84 126/127/85 124/128/86
f 124/129/86 122/130/87 102/131/88 34/132/83
s 12
f 114/133/89 115/134/90 26/135/91 45/136/92
s 14
f 125/137/93 126/138/85 110/139/84 31/140/94
f 93/141/95 96/142/96 118/143/97 117/144/98
s 12
f 112/145/99 113/146/81 128/147/80 127/148/100
s off
f 98/149/101 100/150/102 116/151/103 119/152/104
s 9
f 108/153/60 32/154/59 45/155/105 94/156/106
s 10
f 41/157/71 48/158/63 47/159/66 42/160/72
s 12
f 127/161/100 114/162/89 45/163/92 112/164/99
s 14
f 31/165/94 93/166/95 117/167/98 125/168/93
s 6
f 65/169/107 70/170/108 109/171/109 111/172/110
f 65/173/107 111/174/110 107/175/111 63/176/112
f 60/177/113 63/178/112 107/179/111 104/180/114
f 70/181/108 22/182/43 46/183/115 109/184/109
s off
f 53/185/116 54/186/117 50/187/118 49/188/119
f 131/189/120 55/190/121 51/191/122 133/192/123
f 137/193/124 56/194/125 52/195/126 139/196/127
f 141/197/128 129/198/129 135/199/130 143/200/131
f 136/201/132 134/202/133 140/203/134 144/204/135
f 142/205/136 138/206/137 132/207/138 130/208/139
s 6
f 46/209/115 22/210/43 4/211/46 28/212/140
s 8
f 95/213/141 90/214/49 89/215/52 99/216/142
s 9
f 45/217/105 26/218/143 97/219/144 94/220/106
s off
f 21/221/145 76/222/146 78/223/147 2/224/148
f 2/225/149 21/226/150 45/227/151 26/228/152
