# This file uses centimeters as units for non-parametric coordinates.

mtllib knife.mtl
g default
v 0.378263 -4.493119 0.254419
v 0.595776 -4.493119 0.254419
v 0.416967 -3.572472 0.231113
v 0.557072 -3.572472 0.231113
v 0.416967 -2.651825 0.207807
v 0.557072 -2.651825 0.207807
v 0.416967 -1.731178 0.172848
v 0.557072 -1.731178 0.172848
v 0.416967 -0.810531 0.161195
v 0.557072 -0.810531 0.161195
v 0.411366 0.048506 0.254419
v 0.558130 0.048506 0.254419
v 0.411366 0.048506 -0.312762
v 0.558130 0.048506 -0.312762
v 0.416967 -0.810532 -0.347721
v 0.557072 -0.810532 -0.347721
v 0.416967 -1.731178 -0.394333
v 0.557072 -1.731178 -0.394333
v 0.416967 -2.651826 -0.475904
v 0.557072 -2.651826 -0.475904
v 0.416967 -3.572472 -0.557475
v 0.557072 -3.572472 -0.557475
v 0.378263 -4.493119 -0.604087
v 0.595776 -4.493119 -0.604087
v 0.439457 0.298407 0.685547
v 0.534582 0.298407 0.685547
v 0.534582 0.275040 -0.318426
v 0.439457 0.275040 -0.318426
v 0.439457 5.232148 -0.118984
v 0.534582 5.232148 -0.118984
v 0.534582 5.232148 -0.492863
v 0.439457 5.232148 -0.492863
v 0.440378 0.869848 0.742471
v 0.533661 0.869848 0.742471
v 0.533661 0.869848 -0.340906
v 0.440378 0.869848 -0.340906
v 0.439457 1.543505 0.692850
v 0.439457 1.543505 -0.357371
v 0.534582 1.543505 -0.357371
v 0.534582 1.543505 0.692850
v 0.439457 2.505872 0.620918
v 0.439457 2.505872 -0.380738
v 0.534582 2.505872 -0.380738
v 0.534582 2.505872 0.620918
v 0.439457 3.355966 0.463642
v 0.439457 3.355966 -0.404105
v 0.534582 3.355966 -0.404105
v 0.534582 3.355966 0.463642
v 0.439457 4.190019 0.304468
v 0.439457 4.190019 -0.435261
v 0.534582 4.190019 -0.435261
v 0.534582 4.190019 0.304468
v 0.411366 0.048506 -0.110990
v 0.439457 0.275040 0.000200
v 0.440378 0.869848 0.002702
v 0.439457 1.543505 0.000200
v 0.439457 2.505872 0.000200
v 0.439457 3.355966 0.000200
v 0.439457 4.190019 0.000200
v 0.439457 5.232148 -0.275809
v 0.534582 5.232148 -0.275809
v 0.534582 4.190019 0.000200
v 0.534582 3.355966 0.000199
v 0.534582 2.505872 0.000199
v 0.534582 1.543505 0.000200
v 0.533661 0.869848 0.002702
v 0.534582 0.275040 0.000200
v 0.558130 0.048506 -0.110990
v 0.557072 -0.810531 -0.166677
v 0.557072 -1.731178 -0.192561
v 0.557072 -2.651825 -0.232677
v 0.557072 -3.572472 -0.276939
v 0.595776 -4.493119 -0.298678
v 0.595776 -5.413766 -0.328708
v 0.378263 -5.413766 -0.328708
v 0.378263 -4.493119 -0.298678
v 0.416967 -3.572472 -0.276939
v 0.416967 -2.651825 -0.232677
v 0.416967 -1.731178 -0.192561
v 0.416967 -0.810531 -0.166677
v 0.439457 4.743374 0.150348
v 0.439457 4.743374 -0.092591
v 0.439457 4.743374 -0.477998
v 0.534582 4.743374 -0.477998
v 0.534582 4.743374 -0.092591
v 0.534582 4.743374 0.150348
v 0.439457 5.438564 -0.393276
v 0.534582 5.438564 -0.393276
v 0.534582 5.438564 -0.451502
v 0.439457 5.438564 -0.451502
v 0.439457 5.438564 -0.329702
v 0.534582 5.438564 -0.329702
v 0.378263 -5.413766 0.034820
v 0.378263 -5.384345 0.144620
v 0.378263 -5.303966 0.224999
v 0.378263 -5.194167 0.254419
v 0.595776 -5.413766 0.034820
v 0.595776 -5.194167 0.254419
v 0.595776 -5.303966 0.224999
v 0.595776 -5.384345 0.144620
v 0.378263 -5.413766 -0.425327
v 0.378263 -5.188683 -0.639303
v 0.378263 -5.300323 -0.614379
v 0.378263 -5.383229 -0.535566
v 0.595776 -5.413766 -0.425327
v 0.595776 -5.383229 -0.535566
v 0.595776 -5.300323 -0.614379
v 0.595776 -5.188683 -0.639303
vt 0.375000 0.083333
vt 0.625000 0.083333
vt 0.375000 0.125000
vt 0.625000 0.125000
vt 0.375000 0.166667
vt 0.625000 0.166667
vt 0.375000 0.208333
vt 0.625000 0.208333
vt 0.375000 0.250000
vt 0.625000 0.250000
vt 0.375000 0.500000
vt 0.625000 0.500000
vt 0.375000 0.541667
vt 0.625000 0.541667
vt 0.375000 0.583333
vt 0.625000 0.583333
vt 0.375000 0.625000
vt 0.625000 0.625000
vt 0.375000 0.666667
vt 0.625000 0.666667
vt 0.375000 0.708333
vt 0.875000 0.083333
vt 0.875000 0.125000
vt 0.875000 0.166667
vt 0.875000 0.208333
vt 0.875000 0.250000
vt 0.125000 0.041667
vt 0.125000 0.083333
vt 0.125000 0.125000
vt 0.125000 0.166667
vt 0.125000 0.208333
vt 0.125000 0.250000
vt 0.375000 0.250000
vt 0.625000 0.250000
vt 0.625000 0.500000
vt 0.375000 0.500000
vt 0.375000 0.250000
vt 0.625000 0.250000
vt 0.625000 0.500000
vt 0.375000 0.500000
vt 0.375000 0.250000
vt 0.625000 0.250000
vt 0.625000 0.500000
vt 0.375000 0.500000
vt 0.375000 0.250000
vt 0.375000 0.500000
vt 0.625000 0.500000
vt 0.625000 0.250000
vt 0.375000 0.250000
vt 0.375000 0.500000
vt 0.625000 0.500000
vt 0.625000 0.250000
vt 0.375000 0.250000
vt 0.375000 0.500000
vt 0.625000 0.500000
vt 0.625000 0.250000
vt 0.375000 0.250000
vt 0.375000 0.500000
vt 0.625000 0.500000
vt 0.625000 0.250000
vt 0.213936 0.250000
vt 0.375000 0.411064
vt 0.375000 0.411064
vt 0.375000 0.411064
vt 0.375000 0.411064
vt 0.375000 0.411064
vt 0.375000 0.411064
vt 0.375000 0.411064
vt 0.375000 0.411064
vt 0.625000 0.411064
vt 0.625000 0.411064
vt 0.625000 0.411064
vt 0.625000 0.411064
vt 0.625000 0.411064
vt 0.625000 0.411064
vt 0.625000 0.411064
vt 0.625000 0.411064
vt 0.786064 0.250000
vt 0.786064 0.208333
vt 0.786064 0.166667
vt 0.786064 0.125000
vt 0.786064 0.083333
vt 0.213936 0.041667
vt 0.213936 0.083333
vt 0.213936 0.125000
vt 0.213936 0.166667
vt 0.213936 0.208333
vt 0.375000 0.250000
vt 0.375000 0.411064
vt 0.375000 0.500000
vt 0.625000 0.500000
vt 0.625000 0.411064
vt 0.625000 0.250000
vt 0.625000 0.411064
vt 0.625000 0.500000
vt 0.375000 0.500000
vt 0.375000 0.411064
vt 0.375000 0.250000
vt 0.625000 0.250000
vt 0.375000 0.041667
vt 0.625000 0.838936
vt 0.375000 0.939345
vt 0.625000 0.812249
vt 0.375000 0.838936
vt 0.625000 0.708333
vt 0.375000 0.739813
vt 0.375000 0.009939
vt 0.625000 0.939345
vt 0.375000 0.812249
vt 0.625000 0.739813
vt 0.213936 0.000000
vt 0.314345 -0.000000
vt 0.685655 0.000000
vt 0.625000 0.041667
vt 0.625000 0.009939
vt 0.187249 0.000000
vt 0.125000 0.010187
vt 0.875000 0.041667
vt 0.786064 0.041667
vt 0.786064 0.000000
vt 0.812751 0.000000
vt 0.875000 0.010187
vt 0.375000 0.000000
vt 0.375000 1.000000
vt 0.375000 0.007187
vt 0.625000 0.007187
vt 0.625000 1.000000
vt 0.625000 0.000000
vt -0.000000 -0.000000
vt 0.375000 0.748763
vt -0.000000 -0.000000
vt 0.375000 0.775288
vt 0.625000 0.775288
vt -0.000000 -0.000000
vt 0.625000 0.748763
vt -0.000000 -0.000000
vn 0.000000 -0.036260 0.999342
vn 0.000000 -0.036260 0.999342
vn 0.000000 0.008786 0.999961
vn 0.000000 0.008786 0.999961
vn 0.000000 0.025307 0.999680
vn 0.000000 0.025307 0.999680
vn 0.000000 0.031628 0.999500
vn 0.000000 0.031628 0.999500
vn 0.000000 0.025307 0.999680
vn 0.000000 0.025307 0.999680
vn 0.000000 -0.046866 0.998901
vn 0.000000 -0.048401 0.998828
vn 0.000000 -0.379718 0.925102
vn 0.000000 -0.387412 0.921907
vn 0.000000 1.000000 0.000000
vn 0.000000 1.000000 0.000000
vn 0.000000 1.000000 0.000000
vn 0.000000 1.000000 0.000000
vn 0.000000 0.037544 -0.999295
vn 0.000000 0.037293 -0.999304
vn 0.000000 0.045684 -0.998956
vn 0.000000 0.045505 -0.998964
vn 0.000000 0.069448 -0.997586
vn 0.000000 0.069448 -0.997586
vn 0.000000 0.088256 -0.996098
vn 0.000000 0.088256 -0.996098
vn 0.000000 0.063683 -0.997970
vn 0.000000 0.063683 -0.997970
vn 0.000000 0.050565 -0.998721
vn 0.000000 0.050565 -0.998721
vn 0.000000 0.012750 -0.999919
vn 0.000000 0.012750 -0.999919
vn 0.000000 -0.989279 -0.146040
vn 0.000000 -0.989279 -0.146040
vn 0.000000 -1.000000 0.000000
vn 0.000000 -1.000000 0.000000
vn 0.999722 0.023569 0.000000
vn 0.999809 0.019561 0.000000
vn 0.999888 0.014945 0.000000
vn 0.999517 0.031082 0.000000
vn 1.000000 0.000000 0.000000
vn 1.000000 0.000000 0.000000
vn 1.000000 -0.000000 0.000000
vn 1.000000 -0.000000 0.000000
vn 1.000000 -0.000539 0.000000
vn 1.000000 -0.000411 0.000000
vn 0.999788 0.020564 -0.000123
vn 0.999738 0.022908 0.000000
vn -0.999888 0.014945 0.000000
vn -0.999809 0.019561 0.000000
vn -0.999722 0.023569 0.000000
vn -0.999517 0.031082 0.000000
vn -1.000000 0.000000 0.000000
vn -1.000000 0.000000 0.000000
vn -1.000000 0.000000 0.000000
vn -1.000000 -0.000000 0.000000
vn -0.999996 -0.002853 0.000000
vn -0.999998 -0.002181 0.000000
vn -0.999781 0.020947 -0.000167
vn -0.999729 0.023289 0.000000
vn 0.000000 -0.865165 0.501488
vn 0.000000 -0.865165 0.501488
vn 0.999586 0.028750 -0.000579
vn 0.999798 0.020098 0.000000
vn 0.000000 -0.031721 -0.999497
vn 0.000000 -0.031786 -0.999495
vn -0.999428 0.033803 -0.000673
vn -0.999714 0.023913 -0.000000
vn 0.000000 -0.005875 0.999983
vn 0.000000 -0.005875 0.999983
vn 0.000000 0.074100 0.997251
vn 0.000000 0.074100 0.997251
vn 1.000000 -0.000573 0.000000
vn 1.000000 -0.000015 -0.000008
vn 1.000000 -0.000368 0.000000
vn 1.000000 -0.000434 0.000000
vn 0.000000 -0.030693 -0.999529
vn 0.000000 -0.030693 -0.999529
vn 0.000000 -0.024338 -0.999704
vn 0.000000 -0.024338 -0.999704
vn -1.000000 -0.000368 -0.000000
vn -1.000000 -0.000015 -0.000008
vn -1.000000 -0.000573 -0.000000
vn -1.000000 -0.000434 0.000000
vn 0.000000 -0.099123 0.995075
vn 0.000000 -0.099123 0.995075
vn -1.000000 0.000000 0.000000
vn -1.000000 -0.000000 0.000000
vn 0.000000 -0.025776 -0.999668
vn 0.000000 -0.025776 -0.999668
vn 1.000000 -0.000000 0.000000
vn 1.000000 0.000000 0.000000
vn 0.000000 0.125463 0.992098
vn 0.000000 0.125463 0.992098
vn -1.000000 -0.000000 0.000000
vn -1.000000 -0.000000 0.000000
vn 0.000000 -0.032357 -0.999476
vn 0.000000 -0.032357 -0.999476
vn 1.000000 0.000000 0.000000
vn 1.000000 0.000000 0.000000
vn 0.000000 0.184667 0.982801
vn 0.000000 0.184667 0.982801
vn -1.000000 -0.000000 0.000000
vn -1.000000 -0.000000 0.000000
vn 0.000000 -0.053185 -0.998585
vn 0.000000 -0.053185 -0.998585
vn 1.000000 0.000000 0.000000
vn 1.000000 0.000000 0.000000
vn 0.000000 0.220267 0.975440
vn 0.000000 0.220267 0.975440
vn -1.000000 -0.000000 0.000000
vn -1.000000 0.000000 0.000000
vn 0.000000 -0.055189 -0.998476
vn 0.000000 -0.055189 -0.998476
vn 1.000000 -0.000000 0.000000
vn 1.000000 0.000000 0.000000
vn 0.000000 0.376444 0.926439
vn 0.000000 0.376444 0.926439
vn -0.997147 0.075463 -0.001730
vn -0.999993 0.003683 -0.000073
vn -1.000000 -0.000143 -0.000011
vn -1.000000 -0.000917 -0.000000
vn -1.000000 0.000000 0.000000
vn -1.000000 0.000000 0.000000
vn -1.000000 -0.000000 0.000000
vn -1.000000 0.000000 0.000000
vn 0.000000 1.000000 0.000000
vn 0.000000 1.000000 0.000000
vn 1.000000 0.000000 0.000000
vn 1.000000 0.000000 0.000000
vn 1.000000 0.000000 0.000000
vn 1.000000 -0.000000 0.000000
vn 1.000000 -0.000918 0.000000
vn 1.000000 -0.000143 -0.000011
vn 0.999995 0.003092 -0.000060
vn 0.997872 0.065191 -0.001459
vn 1.000000 -0.000706 0.000000
vn 1.000000 -0.000000 0.000000
vn 1.000000 -0.000000 0.000000
vn 0.999675 0.025495 0.000000
vn 0.999817 0.019125 0.000000
vn 0.000000 -0.998074 0.062038
vn 0.000000 -0.998074 0.062038
vn -0.999817 0.019125 0.000000
vn -0.999675 0.025495 0.000000
vn -1.000000 -0.000000 0.000000
vn -1.000000 0.000000 0.000000
vn -0.999993 -0.003734 0.000000
vn -1.000000 0.000000 0.000000
vn -1.000000 -0.000000 0.000000
vn -1.000000 0.000000 0.000000
vn 0.000000 0.038086 -0.999274
vn 0.000000 0.038086 -0.999274
vn 1.000000 -0.000000 0.000000
vn 1.000000 -0.000000 0.000000
vn 1.000000 0.000000 0.000000
vn 0.000000 0.568220 0.822877
vn 0.000000 0.568220 0.822877
vn 1.000000 0.000000 0.000000
vn 1.000000 0.000000 0.000000
vn 0.000000 0.196470 -0.980510
vn 0.000000 0.196470 -0.980510
vn -1.000000 0.000000 0.000000
vn -1.000000 0.000000 0.000000
vn 0.000000 0.714360 0.699779
vn 0.000000 0.714360 0.699779
vn 1.000000 0.000000 0.000000
vn -1.000000 0.000000 0.000000
vn 0.000000 -0.258819 0.965926
vn 0.000000 -0.258819 0.965926
vn 0.000000 -0.707109 0.707105
vn 0.000000 -0.866026 0.500000
vn 0.000000 -0.866026 0.500000
vn 0.000000 -0.707109 0.707105
vn 0.000000 -0.963709 -0.266955
vn 0.000000 -0.963709 -0.266955
vn 0.000000 -0.688996 -0.724765
vn 0.000000 -0.688996 -0.724765
vn 0.000000 -0.688996 -0.724765
vn 0.000000 -0.688996 -0.724765
vn 0.000000 -0.217883 -0.975975
vn 0.000000 -0.217883 -0.975975
vn -1.000000 -0.000000 0.000000
vn -1.000000 -0.000000 0.000000
vn -1.000000 -0.000000 0.000000
vn -1.000000 -0.000000 0.000000
vn -1.000000 -0.000000 0.000000
vn 1.000000 0.000000 0.000000
vn 1.000000 -0.000000 0.000000
vn 1.000000 0.000000 0.000000
vn 1.000000 0.000000 0.000000
vn 1.000000 0.000000 0.000000
vn -1.000000 0.000000 0.000000
vn -1.000000 0.000000 0.000000
vn -1.000000 0.000000 0.000000
vn -1.000000 0.000000 0.000000
vn 1.000000 -0.000000 0.000000
vn 1.000000 -0.000000 0.000000
vn 1.000000 -0.000000 0.000000
vn 1.000000 -0.000000 0.000000
s 1
g pCube1
usemtl initialShadingGroup
f 96/107/1 98/115/2 2/114/3 1/100/4
f 1/100/4 2/114/3 4/2/5 3/1/6
f 3/1/6 4/2/5 6/4/7 5/3/8
f 5/3/8 6/4/7 8/6/9 7/5/10
f 7/5/10 8/6/9 10/8/11 9/7/12
f 9/7/12 10/8/11 12/10/13 11/9/14
s 2
f 87/97/15 88/94/16 89/95/17 90/96/18
s 3
f 13/11/19 14/12/20 16/14/21 15/13/22
f 15/13/22 16/14/21 18/16/23 17/15/24
f 17/15/24 18/16/23 20/18/25 19/17/26
f 19/17/26 20/18/25 22/20/27 21/19/28
f 21/19/28 22/20/27 24/105/29 23/21/30
f 23/21/30 24/105/29 108/110/31 102/106/32
s 4
f 101/109/33 105/103/34 74/101/35 75/104/36
s 5
f 72/82/37 73/119/38 24/118/39 22/22/40
f 71/81/41 72/82/37 22/22/40 20/23/42
f 70/80/43 71/81/41 20/23/42 18/24/44
f 69/79/45 70/80/43 18/24/44 16/25/46
f 68/78/47 69/79/45 16/25/46 14/26/48
s 6
f 23/27/49 76/83/50 77/84/51 21/28/52
f 21/28/52 77/84/51 78/85/53 19/29/54
f 19/29/54 78/85/53 79/86/55 17/30/56
f 17/30/56 79/86/55 80/87/57 15/31/58
f 15/31/58 80/87/57 53/61/59 13/32/60
s 1
f 11/9/14 12/10/13 26/34/61 25/33/62
s 5
f 67/76/63 68/77/47 14/12/48 27/35/64
s 3
f 14/12/20 13/11/19 28/36/65 27/35/66
s 6
f 13/11/60 53/62/59 54/63/67 28/36/68
s 7
f 33/41/69 34/42/70 40/48/71 37/45/72
s 5
f 65/74/73 66/75/74 35/43/75 39/47/76
s 3
f 35/43/77 36/44/78 38/46/79 39/47/80
s 6
f 36/44/81 55/64/82 56/65/83 38/46/84
s 7
f 25/33/85 26/34/86 34/42/70 33/41/69
s 5
f 66/75/74 67/76/63 27/35/64 35/43/75
s 3
f 27/35/66 28/36/65 36/44/78 35/43/77
s 6
f 28/36/68 54/63/67 55/64/82 36/44/81
f 38/46/84 56/65/83 57/66/87 42/50/88
s 3
f 39/47/80 38/46/79 42/50/89 43/51/90
s 5
f 64/73/91 65/74/73 39/47/76 43/51/92
s 7
f 37/45/72 40/48/71 44/52/93 41/49/94
s 6
f 42/50/88 57/66/87 58/67/95 46/54/96
s 3
f 43/51/90 42/50/89 46/54/97 47/55/98
s 5
f 63/72/99 64/73/91 43/51/92 47/55/100
s 7
f 41/49/94 44/52/93 48/56/101 45/53/102
s 6
f 46/54/96 58/67/95 59/68/103 50/58/104
s 3
f 47/55/98 46/54/97 50/58/105 51/59/106
s 5
f 62/71/107 63/72/99 47/55/100 51/59/108
s 7
f 45/53/102 48/56/101 52/60/109 49/57/110
s 6
f 50/58/104 59/68/103 82/89/111 83/90/112
s 3
f 51/59/106 50/58/105 83/90/113 84/91/114
s 5
f 84/91/115 85/92/116 62/71/107 51/59/108
s 7
f 49/57/110 52/60/109 86/93/117 81/88/118
s 6
f 54/63/67 53/62/59 11/9/119 25/33/120
f 55/64/82 54/63/67 25/33/120 33/41/121
f 56/65/83 55/64/82 33/41/121 37/45/122
f 57/66/87 56/65/83 37/45/122 41/49/123
f 58/67/95 57/66/87 41/49/123 45/53/124
f 59/68/103 58/67/95 45/53/124 49/57/125
f 81/88/126 82/89/111 59/68/103 49/57/125
s 2
f 91/98/127 92/99/128 88/94/16 87/97/15
s 5
f 52/60/129 62/71/107 85/92/116 86/93/130
f 48/56/131 63/72/99 62/71/107 52/60/129
f 44/52/132 64/73/91 63/72/99 48/56/131
f 40/48/133 65/74/73 64/73/91 44/52/132
f 34/42/134 66/75/74 65/74/73 40/48/133
f 26/34/135 67/76/63 66/75/74 34/42/134
f 12/10/136 68/77/47 67/76/63 26/34/135
f 10/8/137 69/79/45 68/78/47 12/10/136
f 8/6/138 70/80/43 69/79/45 10/8/137
f 6/4/139 71/81/41 70/80/43 8/6/138
f 4/2/140 72/82/37 71/81/41 6/4/139
f 2/114/141 73/119/38 72/82/37 4/2/140
s 4
f 75/104/36 74/101/35 97/108/142 93/102/143
s 6
f 77/84/51 76/83/50 1/100/144 3/1/145
f 78/85/53 77/84/51 3/1/145 5/3/146
f 79/86/55 78/85/53 5/3/146 7/5/147
f 80/87/57 79/86/55 7/5/147 9/7/148
f 53/61/59 80/87/57 9/7/148 11/9/119
f 60/69/149 82/89/111 81/88/126 29/37/150
f 83/90/112 82/89/111 60/69/149 32/40/151
s 3
f 84/91/114 83/90/113 32/40/152 31/39/153
s 5
f 61/70/154 85/92/116 84/91/115 31/39/155
f 86/93/130 85/92/116 61/70/154 30/38/156
s 7
f 81/88/118 86/93/117 30/38/157 29/37/158
s 5
f 61/70/154 31/39/155 89/95/159 88/94/160
s 3
f 31/39/153 32/40/152 90/96/161 89/95/162
s 6
f 32/40/151 60/69/149 87/97/163 90/96/164
s 7
f 29/37/158 30/38/157 92/99/165 91/98/166
s 5
f 30/38/156 61/70/154 88/94/160 92/99/167
s 6
f 60/69/149 29/37/150 91/98/168 87/97/163
s 1
f 96/107/1 95/125/169 99/126/170 98/115/2
s 4
f 95/125/171 94/123/172 100/128/173 99/126/174
f 94/124/172 93/102/143 97/108/142 100/127/173
f 101/109/33 104/132/175 106/133/176 105/103/34
s off
f 104/132/177 103/130/178 107/135/179 106/133/180
s 3
f 103/130/181 102/106/32 108/110/31 107/135/182
s 6
f 1/100/144 76/83/50 75/111/183 93/112/184 94/123/185 95/125/186 96/107/187
s 5
f 97/113/188 74/120/189 73/119/38 2/114/141 98/115/190 99/126/191 100/128/192
s 6
f 101/116/193 75/111/183 76/83/50 23/27/49 102/117/194 103/129/195 104/131/196
s 5
f 24/118/39 73/119/38 74/120/189 105/121/197 106/134/198 107/136/199 108/122/200
